<?xml version="1.0" standalone="no"?>
<!DOCTYPE svg PUBLIC "-//W3C//DTD SVG 20010904//EN"
 "http://www.w3.org/TR/2001/REC-SVG-20010904/DTD/svg10.dtd">
<svg version="1.0" xmlns="http://www.w3.org/2000/svg"
 width="1660.000000pt" height="1660.000000pt" viewBox="0 0 1660.000000 1660.000000"
 preserveAspectRatio="xMidYMid meet">
<metadata>
Created by potrace 1.14, written by Peter Selinger 2001-2017
</metadata>
<g transform="translate(0.000000,1660.000000) scale(0.100000,-0.100000)"
fill="#000000" stroke="none">
<path d="M7865 16529 c-1494 -83 -2891 -547 -4130 -1372 -668 -445 -1301
-1019 -1819 -1651 -1013 -1235 -1651 -2777 -1810 -4371 -54 -540 -54 -1138 0
-1670 161 -1583 780 -3096 1769 -4320 259 -322 711 -793 1000 -1045 1121 -975
2440 -1619 3882 -1894 799 -153 1643 -185 2458 -95 1569 173 3035 786 4268
1782 424 342 867 784 1212 1207 1342 1644 1995 3757 1820 5880 -104 1256 -484
2446 -1128 3530 -184 309 -464 711 -692 990 -247 304 -640 714 -922 962 -1054
929 -2277 1560 -3633 1872 -714 164 -1545 235 -2275 195z m895 -129 c1146 -69
2214 -356 3215 -865 611 -311 1165 -687 1695 -1150 174 -152 563 -541 715
-715 1016 -1162 1667 -2527 1919 -4025 170 -1007 142 -2111 -79 -3100 -300
-1346 -917 -2559 -1836 -3610 -151 -173 -529 -552 -709 -710 -1197 -1055
-2662 -1734 -4215 -1954 -463 -66 -799 -86 -1300 -78 -474 7 -797 37 -1238
112 -1288 219 -2531 763 -3562 1559 -573 442 -1109 982 -1534 1545 -1291 1709
-1848 3823 -1570 5959 224 1726 1016 3351 2239 4596 463 471 888 820 1415
1160 1192 769 2549 1204 3995 1279 146 8 704 6 850 -3z"/>
<path d="M10225 14220 c-3 -5 -30 -10 -60 -10 -30 0 -56 -4 -59 -9 -3 -5 -26
-12 -51 -15 -25 -4 -45 -11 -45 -17 0 -5 -16 -9 -35 -9 -19 0 -35 -4 -35 -10
0 -5 -10 -10 -22 -10 -13 0 -32 -7 -42 -15 -11 -8 -28 -15 -38 -15 -10 0 -18
-4 -18 -10 0 -5 -11 -10 -25 -10 -14 0 -25 -4 -25 -9 0 -5 -11 -12 -25 -15
-14 -4 -25 -11 -25 -16 0 -6 -9 -10 -20 -10 -11 0 -20 -4 -20 -10 0 -5 -7 -10
-15 -10 -8 0 -15 -4 -15 -9 0 -5 -10 -13 -22 -17 -13 -4 -30 -14 -38 -23 -24
-26 -71 -44 -84 -31 -5 5 -18 10 -28 10 -10 0 -18 5 -18 10 0 6 -11 10 -25 10
-14 0 -25 4 -25 9 0 5 -12 11 -27 14 -30 5 -87 24 -115 38 -10 5 -35 9 -57 9
-22 0 -41 5 -43 10 -2 6 -29 14 -61 17 -31 3 -57 9 -57 14 0 9 -108 18 -307
25 -97 3 -143 2 -143 -5 0 -7 -29 -11 -75 -11 -41 0 -75 -4 -75 -9 0 -4 -24
-11 -52 -14 -29 -4 -54 -11 -56 -17 -2 -5 -17 -10 -33 -10 -16 0 -37 -4 -47
-9 -9 -5 -35 -17 -57 -26 -22 -10 -48 -22 -57 -26 -10 -5 -25 -9 -33 -9 -8 0
-15 -4 -15 -9 0 -5 -11 -12 -25 -15 -14 -4 -25 -11 -25 -16 0 -6 -7 -10 -15
-10 -8 0 -15 -4 -15 -10 0 -5 -7 -10 -15 -10 -9 0 -26 -11 -39 -25 -13 -14
-31 -25 -40 -25 -9 0 -16 -4 -16 -10 0 -5 -7 -10 -15 -10 -8 0 -15 -7 -15 -15
0 -8 -5 -15 -10 -15 -12 0 -40 -24 -110 -95 -75 -76 -120 -124 -120 -130 0 -3
-11 -18 -25 -33 -14 -15 -25 -32 -25 -39 0 -7 -4 -13 -10 -13 -5 0 -10 -5 -10
-11 0 -6 -6 -17 -12 -24 -32 -36 -38 -46 -38 -65 0 -11 -4 -20 -10 -20 -5 0
-10 -6 -10 -14 0 -7 -7 -19 -15 -26 -8 -7 -15 -21 -15 -31 0 -11 -4 -19 -10
-19 -5 0 -10 -9 -10 -20 0 -11 -4 -28 -9 -38 -26 -52 -41 -96 -41 -122 0 -16
-4 -32 -10 -35 -5 -3 -10 -25 -10 -49 0 -23 -6 -48 -12 -54 -18 -18 -24 -423
-8 -489 7 -26 15 -76 17 -110 3 -35 9 -63 14 -63 5 0 9 -15 9 -34 0 -19 4 -37
9 -41 6 -3 13 -26 17 -50 3 -25 10 -45 15 -45 5 0 9 -16 9 -35 0 -19 5 -35 10
-35 6 0 10 -11 10 -24 0 -13 7 -29 15 -36 8 -7 15 -23 15 -36 0 -13 5 -24 10
-24 6 0 10 -18 10 -40 0 -22 -4 -40 -10 -40 -5 0 -10 -9 -10 -20 0 -11 -4 -20
-10 -20 -5 0 -12 -11 -16 -25 -3 -14 -10 -25 -15 -25 -5 0 -9 -7 -9 -15 0 -8
-3 -15 -8 -15 -4 0 -16 -16 -26 -35 -11 -19 -23 -35 -28 -35 -4 0 -8 -9 -8
-19 0 -10 -7 -21 -15 -25 -8 -3 -15 -15 -15 -26 0 -11 -4 -20 -10 -20 -5 0
-10 -5 -10 -11 0 -6 -6 -17 -12 -24 -30 -33 -38 -45 -38 -55 0 -5 -4 -10 -10
-10 -5 0 -10 -7 -10 -15 0 -9 -11 -26 -25 -39 -14 -13 -25 -25 -25 -28 0 -3
42 -8 93 -12 50 -4 106 -9 122 -12 17 -3 73 -9 125 -13 52 -4 88 -9 80 -11 -8
-2 19 -7 60 -10 41 -4 104 -15 140 -25 36 -9 84 -19 108 -22 23 -3 42 -9 42
-14 0 -5 13 -9 29 -9 16 0 45 -7 64 -15 20 -8 48 -15 62 -15 14 0 25 -4 25
-10 0 -5 15 -10 34 -10 19 0 37 -4 40 -9 3 -5 22 -12 41 -15 19 -4 35 -11 35
-16 0 -6 16 -10 35 -10 19 0 35 -4 35 -10 0 -5 10 -10 23 -10 13 0 32 -7 43
-15 10 -8 29 -15 42 -15 12 0 22 -4 22 -10 0 -5 14 -10 30 -10 17 0 30 -4 30
-8 0 -4 23 -16 50 -27 28 -11 50 -23 50 -27 0 -4 10 -8 23 -8 13 0 32 -7 43
-15 10 -8 27 -15 37 -15 9 0 17 -4 17 -10 0 -5 9 -10 20 -10 11 0 20 -4 20
-10 0 -5 11 -10 25 -10 14 0 28 -7 31 -15 4 -8 14 -15 24 -15 10 0 20 -3 22
-7 4 -11 67 -43 84 -43 8 0 14 -4 14 -10 0 -5 7 -10 15 -10 8 0 15 -4 15 -10
0 -5 9 -10 20 -10 11 0 20 -4 20 -10 0 -5 11 -12 25 -16 14 -3 25 -10 25 -15
0 -5 9 -9 20 -9 11 0 20 -4 20 -10 0 -5 11 -12 25 -16 14 -3 25 -10 25 -15 0
-5 7 -9 15 -9 8 0 15 -4 15 -10 0 -5 6 -10 13 -10 7 0 24 -11 39 -25 15 -14
33 -25 39 -25 7 0 27 -11 45 -25 18 -14 37 -25 43 -25 6 0 11 -4 11 -8 0 -5
16 -17 35 -28 19 -10 35 -22 35 -26 0 -5 5 -8 10 -8 10 0 22 -8 55 -37 7 -7
16 -13 20 -13 3 0 17 -11 31 -25 14 -14 30 -25 37 -25 7 0 19 -9 27 -20 8 -11
18 -20 23 -20 10 0 26 -13 78 -62 21 -21 42 -38 45 -38 3 0 12 -6 19 -12 30
-27 44 -38 50 -38 3 0 33 -27 67 -60 33 -33 65 -60 69 -60 4 0 28 -20 52 -45
25 -25 50 -45 56 -45 6 0 11 -5 11 -11 0 -16 30 -43 38 -34 4 4 1 10 -5 12 -7
3 -13 9 -13 15 0 13 -26 38 -39 38 -6 0 -11 5 -11 10 0 6 -10 22 -22 35 -34
36 -48 53 -48 60 0 7 -369 375 -376 375 -6 0 -25 15 -59 48 -13 12 -27 22 -30
22 -10 0 -35 28 -35 39 0 6 -5 11 -11 11 -6 0 -17 6 -24 13 -30 26 -44 37 -50
37 -3 0 -19 14 -37 30 -17 17 -34 30 -38 30 -4 0 -23 13 -41 30 -19 16 -40 30
-46 30 -7 0 -13 5 -13 10 0 6 -5 10 -10 10 -6 0 -22 11 -36 25 -14 14 -29 25
-35 25 -5 0 -22 11 -37 25 -15 14 -32 25 -39 25 -7 0 -13 5 -13 10 0 6 -6 10
-14 10 -8 0 -16 3 -18 8 -4 8 -68 50 -120 77 -21 11 -38 23 -38 27 0 5 -7 8
-15 8 -8 0 -15 5 -15 10 0 6 -6 10 -14 10 -18 0 -76 32 -76 43 0 4 -7 7 -15 7
-9 0 -33 11 -55 25 -22 14 -44 25 -50 25 -5 0 -10 5 -10 10 0 6 -8 10 -18 10
-10 0 -27 7 -38 15 -10 8 -27 15 -36 15 -10 0 -18 5 -18 10 0 6 -5 10 -11 10
-6 0 -17 7 -25 15 -9 8 -24 15 -34 15 -10 0 -22 5 -25 10 -3 6 -15 10 -26 10
-10 0 -19 5 -19 10 0 6 -10 10 -22 10 -13 0 -32 7 -42 15 -11 8 -28 15 -38 15
-10 0 -18 5 -18 10 0 6 -11 10 -24 10 -13 0 -26 3 -28 8 -5 11 -76 42 -98 42
-11 0 -20 5 -20 10 0 6 -7 10 -16 10 -24 0 -114 33 -114 42 0 5 -16 8 -35 8
-19 0 -35 4 -35 9 0 6 -20 13 -45 17 -25 3 -45 10 -45 15 0 5 -16 9 -35 9 -19
0 -35 5 -35 10 0 6 -15 10 -33 10 -18 0 -38 5 -43 10 -6 6 -34 13 -62 17 -29
3 -52 10 -52 14 0 5 -11 9 -25 9 -16 0 -25 6 -25 15 0 8 5 15 10 15 6 0 10 7
10 15 0 9 11 26 25 39 14 13 25 29 25 36 0 7 11 23 25 36 14 13 25 30 25 39 0
8 5 15 10 15 6 0 10 5 10 11 0 7 11 22 25 35 14 13 25 28 25 34 0 6 14 25 30
42 17 16 30 33 30 38 0 5 14 22 30 38 17 17 30 33 30 37 0 3 10 17 23 30 37
40 47 54 47 65 0 5 5 10 11 10 11 0 39 24 39 34 0 7 148 156 155 156 6 0 20
11 50 38 7 6 18 12 24 12 6 0 11 5 11 10 0 6 10 10 23 10 12 1 33 7 47 15 14
8 37 14 53 15 15 0 27 5 27 10 0 6 24 10 54 10 30 0 58 5 61 10 4 6 63 10 146
10 86 0 139 -4 139 -10 0 -6 32 -10 75 -10 43 0 75 -4 75 -10 0 -5 22 -10 49
-10 27 0 62 -7 77 -15 16 -8 41 -15 57 -15 15 0 27 -4 27 -10 0 -5 20 -10 45
-10 25 0 45 -4 45 -10 0 -5 18 -13 40 -16 22 -4 40 -10 40 -15 0 -5 16 -9 35
-9 19 0 35 -4 35 -10 0 -5 11 -10 24 -10 13 0 29 -7 36 -15 7 -8 23 -15 36
-15 13 0 24 -4 24 -10 0 -5 11 -10 24 -10 14 0 27 -4 31 -9 3 -5 19 -12 35
-16 17 -4 30 -11 30 -16 0 -5 11 -9 25 -9 14 0 25 -4 25 -10 0 -5 8 -10 18
-10 10 0 27 -7 38 -15 10 -8 27 -15 37 -15 9 0 17 -4 17 -10 0 -5 11 -10 25
-10 14 0 25 -4 25 -10 0 -5 11 -12 25 -16 14 -3 25 -10 25 -15 0 -5 9 -9 20
-9 11 0 20 -4 20 -10 0 -5 8 -10 19 -10 10 0 24 -7 31 -15 7 -8 21 -15 31 -15
11 0 19 -4 19 -10 0 -5 7 -10 15 -10 8 0 15 -4 15 -10 0 -5 8 -10 19 -10 10 0
24 -7 31 -15 7 -8 19 -15 26 -15 8 0 14 -4 14 -10 0 -5 11 -10 25 -10 14 0 25
-3 25 -8 0 -4 17 -16 38 -27 20 -11 42 -24 49 -30 7 -5 19 -16 27 -22 8 -7 22
-13 31 -13 8 0 15 -4 15 -10 0 -5 7 -10 15 -10 8 0 15 -4 15 -9 0 -5 11 -12
25 -15 14 -4 25 -11 25 -16 0 -6 7 -10 15 -10 8 0 15 -4 15 -10 0 -5 9 -10 20
-10 11 0 20 2 20 5 0 8 -73 78 -115 110 -22 16 -54 44 -72 62 -17 18 -35 33
-39 33 -3 0 -16 10 -28 23 -12 12 -33 28 -49 36 -15 8 -27 20 -27 28 0 7 -7
13 -15 13 -8 0 -15 5 -15 10 0 6 -6 10 -13 10 -7 0 -24 11 -39 25 -15 14 -30
25 -33 25 -4 0 -13 6 -20 13 -33 29 -45 37 -55 37 -5 0 -10 5 -10 10 0 6 -9
10 -20 10 -11 0 -20 4 -20 8 0 4 -27 24 -60 43 -33 18 -60 37 -60 42 0 4 -11
7 -25 7 -14 0 -25 5 -25 10 0 6 -7 10 -15 10 -8 0 -15 5 -15 10 0 6 -8 10 -19
10 -10 0 -24 7 -31 15 -7 8 -19 15 -26 15 -8 0 -14 5 -14 10 0 6 -11 10 -25
10 -14 0 -25 4 -25 9 0 5 -10 12 -22 16 -31 8 -53 18 -118 49 -30 14 -65 26
-78 26 -12 0 -22 5 -22 10 0 6 -10 10 -22 10 -13 1 -34 7 -48 15 -14 8 -35 14
-47 15 -13 0 -23 5 -23 10 0 6 -17 10 -38 10 -21 0 -42 3 -46 7 -12 12 -116
34 -185 40 -43 3 -60 8 -50 14 9 5 -22 9 -82 9 -53 0 -98 3 -101 6 -3 3 -68 5
-143 5 -75 0 -140 -2 -143 -5 -3 -3 -43 -6 -89 -6 -49 0 -83 -4 -83 -10 0 -5
-19 -10 -43 -10 -24 0 -47 -4 -53 -8 -5 -5 -37 -17 -71 -28 -35 -10 -63 -22
-63 -25 0 -4 -11 -10 -25 -13 -14 -4 -25 -11 -25 -16 0 -6 -5 -10 -10 -10 -17
0 -66 -53 -81 -87 -8 -18 -17 -33 -21 -33 -5 0 -8 -6 -8 -14 0 -18 -32 -76
-42 -76 -5 0 -8 -11 -8 -25 0 -14 -4 -25 -8 -25 -5 0 -17 -18 -28 -40 -28 -57
-63 -62 -64 -8 0 9 -4 20 -10 23 -5 3 -10 19 -10 35 0 16 -4 31 -9 35 -6 3
-13 26 -17 50 -3 25 -10 45 -15 45 -5 0 -9 24 -9 54 0 30 -4 58 -10 61 -6 4
-10 87 -10 216 0 133 4 209 10 209 6 0 10 21 10 48 1 43 28 143 44 159 3 3 6
19 6 35 0 15 5 28 10 28 6 0 10 11 10 24 0 13 7 26 15 30 8 3 15 15 15 26 0
11 4 20 8 20 4 0 14 15 20 34 7 19 19 37 27 40 8 3 15 12 15 21 0 19 196 215
215 215 8 0 18 6 22 13 4 6 22 19 38 27 17 8 36 21 43 28 7 6 20 12 28 12 8 0
14 5 14 10 0 6 11 10 25 10 14 0 25 5 25 10 0 6 8 10 18 10 9 0 26 7 36 15 11
8 30 15 43 15 13 0 23 4 23 9 0 5 17 11 38 14 110 17 172 30 172 38 0 5 81 9
180 9 99 0 180 -4 180 -9 0 -5 28 -14 63 -20 108 -18 127 -23 127 -32 0 -5 16
-9 35 -9 19 0 35 -4 35 -10 0 -5 11 -12 25 -16 14 -3 25 -10 25 -15 0 -5 11
-9 25 -9 14 0 25 -4 25 -10 0 -5 11 -12 25 -16 14 -3 25 -10 25 -15 0 -5 9 -9
20 -9 11 0 20 -4 20 -10 0 -5 6 -10 13 -10 7 0 24 -11 39 -25 15 -14 30 -25
33 -25 4 0 13 -6 20 -12 32 -29 45 -38 52 -38 5 0 17 -11 27 -25 10 -14 25
-25 32 -25 13 0 74 54 74 65 0 8 77 85 84 85 3 0 23 16 43 35 20 19 43 35 50
35 7 0 13 5 13 10 0 6 7 10 15 10 8 0 15 4 15 10 0 5 11 12 25 16 14 3 25 10
25 15 0 5 9 9 19 9 11 0 21 4 23 8 4 11 126 62 148 62 10 0 20 5 22 11 2 5 22
13 46 16 23 3 42 10 42 14 0 5 22 9 48 9 26 0 53 5 58 10 7 7 71 9 185 6 198
-5 289 -14 289 -27 0 -5 10 -9 23 -9 12 -1 33 -7 47 -15 14 -8 35 -14 48 -15
12 0 22 -4 22 -10 0 -5 11 -10 25 -10 14 0 25 -4 25 -10 0 -5 11 -12 25 -16
14 -3 25 -10 25 -15 0 -5 9 -9 20 -9 11 0 20 -4 20 -10 0 -5 5 -10 11 -10 6 0
17 -6 24 -12 31 -28 44 -38 51 -38 4 0 21 -16 40 -35 18 -19 36 -35 41 -35 13
0 73 -57 73 -68 0 -6 18 -30 40 -52 22 -22 40 -45 40 -50 0 -6 5 -10 10 -10 6
0 10 -7 10 -16 0 -8 6 -22 13 -29 31 -35 37 -45 37 -60 0 -8 5 -15 10 -15 6 0
10 -8 10 -19 0 -10 7 -24 15 -31 8 -7 15 -23 15 -36 0 -13 5 -24 10 -24 6 0
10 -11 10 -25 0 -14 4 -25 9 -25 5 0 12 -20 15 -45 4 -25 11 -45 17 -45 5 0 9
-18 9 -40 0 -22 4 -40 9 -40 5 0 11 -28 14 -62 3 -35 8 -74 12 -88 13 -47 17
-392 5 -470 -6 -41 -14 -105 -17 -142 -3 -38 -10 -68 -14 -68 -5 0 -9 -11 -9
-25 0 -22 4 -25 35 -25 19 0 35 -4 35 -9 0 -5 16 -12 35 -15 19 -4 35 -11 35
-16 0 -6 11 -10 25 -10 14 0 25 -4 25 -10 0 -5 7 -10 15 -10 17 0 148 -78 153
-91 2 -5 8 -9 13 -9 10 0 24 -11 64 -47 13 -13 29 -23 35 -23 5 0 10 -4 10 -9
0 -5 20 -29 45 -54 25 -26 45 -51 45 -57 0 -6 11 -21 25 -34 14 -13 25 -28 25
-35 0 -6 11 -29 25 -51 14 -22 25 -46 25 -55 0 -8 5 -15 10 -15 6 0 10 -8 10
-17 0 -10 7 -36 15 -58 8 -22 14 -57 15 -77 0 -21 5 -38 10 -38 6 0 10 -63 10
-170 0 -93 -4 -170 -8 -170 -4 0 -13 -30 -20 -67 -19 -106 -24 -123 -33 -123
-5 0 -9 -10 -9 -22 0 -13 -11 -43 -25 -67 -14 -23 -25 -49 -25 -57 0 -8 -4
-14 -10 -14 -5 0 -10 -7 -10 -15 0 -8 -4 -15 -9 -15 -5 0 -13 -10 -17 -22 -3
-12 -17 -32 -30 -45 -13 -13 -24 -28 -24 -33 0 -11 -146 -160 -157 -160 -5 0
-19 -10 -33 -23 -14 -12 -42 -32 -63 -42 -22 -11 -47 -24 -58 -30 -10 -5 -19
-13 -19 -17 0 -5 -8 -8 -17 -8 -10 0 -27 -7 -37 -15 -11 -8 -30 -15 -43 -15
-13 0 -23 -4 -23 -10 0 -5 -11 -10 -25 -10 -14 0 -25 -4 -25 -10 0 -5 -15 -10
-32 -10 -18 -1 -44 -7 -58 -15 -14 -8 -48 -14 -77 -15 -28 0 -55 -4 -58 -10
-7 -12 -195 -14 -195 -2 0 4 9 14 20 22 11 8 20 20 20 27 0 7 5 13 10 13 6 0
22 10 35 23 13 12 40 36 59 52 35 29 36 31 36 108 0 45 -4 77 -10 77 -6 0 -10
27 -10 60 0 33 -4 60 -10 60 -5 0 -10 10 -10 23 0 12 -7 35 -15 51 -8 15 -15
39 -15 52 0 13 -4 24 -10 24 -5 0 -10 11 -10 24 0 13 -7 29 -15 36 -8 7 -15
23 -15 36 0 13 -4 24 -10 24 -5 0 -10 7 -10 15 0 9 -11 33 -25 55 -14 22 -25
46 -25 55 0 8 -3 15 -8 15 -7 0 -25 30 -38 63 -3 9 -10 17 -15 17 -5 0 -9 9
-9 20 0 11 -3 20 -8 20 -4 0 -16 16 -26 35 -11 19 -23 35 -28 35 -4 0 -8 6 -8
13 -1 13 -34 57 -44 57 -3 0 -6 -11 -6 -25 0 -14 4 -25 9 -25 5 0 12 -16 15
-35 4 -19 11 -35 16 -35 6 0 10 -16 10 -35 0 -19 5 -35 10 -35 6 0 10 -7 10
-16 0 -18 28 -108 41 -136 5 -10 9 -34 9 -53 0 -19 5 -35 10 -35 6 0 10 -17
10 -38 0 -21 7 -64 15 -95 21 -82 20 -230 -2 -268 -10 -16 -21 -29 -25 -29 -4
0 -8 -9 -8 -20 0 -11 -4 -20 -10 -20 -5 0 -10 -6 -10 -14 0 -8 -7 -16 -15 -20
-8 -3 -15 -12 -15 -21 0 -8 -4 -15 -10 -15 -5 0 -10 -7 -10 -15 0 -8 -4 -15
-10 -15 -5 0 -12 -11 -16 -25 -3 -14 -10 -25 -15 -25 -5 0 -9 -7 -9 -15 0 -8
-3 -15 -8 -15 -4 0 -16 -16 -26 -35 -11 -19 -23 -35 -28 -35 -4 0 -8 -9 -8
-20 0 -11 -4 -20 -9 -20 -5 0 -12 -11 -15 -25 -4 -14 -11 -25 -16 -25 -6 0
-10 -7 -10 -15 0 -8 -4 -15 -10 -15 -5 0 -10 -8 -10 -19 0 -10 -7 -24 -15 -31
-8 -7 -15 -19 -15 -26 0 -8 -4 -14 -10 -14 -5 0 -10 -11 -10 -25 0 -14 -3 -25
-7 -25 -10 0 -43 -58 -43 -75 0 -7 -3 -15 -7 -17 -11 -4 -43 -67 -43 -84 0 -8
-4 -14 -10 -14 -5 0 -10 -11 -10 -25 0 -14 -4 -25 -9 -25 -5 0 -12 -16 -15
-35 -4 -19 -11 -35 -16 -35 -6 0 -10 -16 -10 -35 0 -19 -4 -35 -10 -35 -5 0
-10 -16 -10 -35 0 -19 5 -35 10 -35 6 0 10 6 10 13 0 7 11 24 25 39 14 15 25
34 25 43 0 8 5 15 10 15 6 0 10 5 10 11 0 6 6 17 13 24 29 33 37 45 37 55 0 5
4 10 8 10 5 0 17 16 28 35 10 19 22 35 26 35 5 0 8 5 8 11 0 6 6 17 13 24 27
31 37 44 37 51 0 4 11 17 25 30 14 13 25 28 25 34 0 6 13 24 30 40 l30 29 195
1 c112 1 195 5 195 11 0 5 20 9 44 9 25 0 48 4 51 10 3 5 28 12 55 16 28 4 50
10 50 15 0 5 16 9 35 9 19 0 35 4 35 9 0 5 16 12 35 15 19 4 35 11 35 16 0 6
11 10 25 10 14 0 25 5 25 10 0 6 6 10 12 10 16 0 119 51 136 67 7 7 19 13 26
13 6 0 18 9 26 20 8 11 22 20 31 20 9 0 25 11 35 25 10 14 23 25 27 25 5 0 15
6 22 13 31 27 44 37 50 37 8 0 35 27 35 35 0 10 28 35 39 35 6 0 11 5 11 11 0
6 6 17 13 24 29 34 37 45 37 55 0 6 5 8 10 5 6 -3 10 -1 10 5 0 6 6 18 13 25
29 33 37 45 37 55 0 5 4 10 9 10 5 0 12 11 15 25 4 14 11 25 16 25 6 0 10 9
10 20 0 11 5 20 10 20 6 0 10 11 10 25 0 14 4 25 9 25 5 0 12 13 16 30 4 16
11 32 16 35 5 4 9 19 9 36 0 16 5 29 10 29 6 0 10 15 10 33 1 17 7 43 15 57 8
14 14 51 15 83 0 31 5 57 10 57 13 0 14 362 1 376 -5 5 -11 32 -14 59 -7 62
-29 145 -39 145 -5 0 -8 16 -8 35 0 19 -4 35 -9 35 -5 0 -12 16 -15 35 -4 19
-11 35 -16 35 -6 0 -10 11 -10 25 0 14 -4 25 -10 25 -5 0 -10 6 -10 14 0 18
-32 76 -42 76 -5 0 -8 7 -8 15 0 8 -5 15 -11 15 -5 0 -8 4 -4 10 3 5 -3 18
-15 30 -11 11 -20 27 -20 35 0 8 -4 15 -10 15 -5 0 -10 7 -10 15 0 8 -7 15
-16 15 -8 0 -12 5 -9 10 3 6 -1 13 -9 16 -9 3 -16 12 -16 19 0 7 -11 21 -25
31 -14 10 -25 22 -25 26 0 8 -148 158 -156 158 -5 0 -19 11 -49 38 -7 6 -16
12 -20 12 -25 0 -34 35 -38 151 -6 147 -25 310 -38 324 -5 5 -9 28 -9 52 0 24
-4 43 -10 43 -5 0 -10 15 -10 34 0 19 -4 37 -9 41 -6 3 -13 26 -17 50 -3 25
-10 45 -15 45 -5 0 -9 11 -9 25 0 14 -4 25 -9 25 -5 0 -12 16 -15 35 -4 19
-11 35 -16 35 -6 0 -10 11 -10 25 0 14 -4 25 -10 25 -5 0 -10 6 -10 14 0 18
-32 76 -42 76 -5 0 -8 11 -8 25 0 14 -4 25 -8 25 -5 0 -17 16 -28 35 -10 19
-22 35 -26 35 -5 0 -8 5 -8 10 0 10 -8 22 -37 55 -7 7 -13 18 -13 24 0 6 -4
11 -9 11 -5 0 -13 9 -16 20 -9 28 -271 290 -290 290 -8 0 -15 5 -15 10 0 6 -7
10 -15 10 -8 0 -15 7 -15 15 0 8 -9 15 -20 15 -11 0 -20 5 -20 10 0 6 -7 10
-15 10 -8 0 -15 4 -15 10 0 5 -11 12 -25 16 -14 3 -25 10 -25 15 0 5 -9 9 -19
9 -11 0 -21 3 -23 8 -4 10 -67 42 -84 42 -8 0 -14 5 -14 10 0 6 -16 10 -35 10
-19 0 -35 4 -35 9 0 12 -78 32 -147 38 -29 3 -53 9 -53 14 0 13 -417 12 -425
-1z"/>
<path d="M3220 13670 c0 -5 -7 -10 -15 -10 -9 0 -15 -9 -15 -25 0 -14 -4 -25
-8 -25 -5 0 -17 -16 -28 -35 -10 -19 -22 -35 -26 -35 -5 0 -8 -5 -8 -10 0 -6
-6 -18 -12 -26 -7 -8 -17 -20 -23 -27 -5 -7 -17 -25 -25 -42 -8 -16 -21 -36
-27 -43 -7 -7 -13 -20 -13 -28 0 -8 -4 -14 -10 -14 -5 0 -10 -5 -10 -10 0 -10
-8 -22 -37 -55 -7 -7 -13 -16 -13 -20 0 -8 -27 -35 -35 -35 -4 0 -13 6 -20 13
-33 29 -45 37 -55 37 -5 0 -10 5 -10 10 0 6 -16 10 -35 10 -19 0 -35 5 -35 10
0 6 -20 10 -45 10 -25 0 -45 -4 -45 -10 0 -5 -16 -10 -35 -10 -19 0 -35 -4
-35 -9 0 -5 -11 -12 -25 -15 -14 -4 -25 -11 -25 -16 0 -6 -5 -10 -10 -10 -15
0 -64 -53 -68 -72 -1 -8 5 -21 13 -28 8 -7 15 -19 15 -26 0 -8 5 -14 10 -14 6
0 10 -11 10 -25 0 -14 4 -25 10 -25 5 0 12 -11 16 -25 3 -14 10 -25 15 -25 5
0 9 -11 9 -25 0 -14 5 -25 10 -25 6 0 10 -8 10 -19 0 -10 7 -24 15 -31 8 -7
15 -19 15 -26 0 -8 5 -14 10 -14 6 0 10 -11 10 -25 0 -14 4 -25 10 -25 5 0 12
-11 16 -25 3 -14 10 -25 15 -25 5 0 9 -9 9 -19 0 -11 5 -21 10 -23 6 -2 12
-13 13 -25 0 -13 7 -25 14 -27 7 -3 13 -15 13 -26 0 -11 5 -20 10 -20 6 0 10
-8 10 -18 0 -27 11 -34 25 -16 13 18 1 142 -16 159 -5 5 -9 24 -9 42 0 18 -4
33 -10 33 -5 0 -10 10 -10 23 0 12 -7 31 -15 41 -8 11 -15 30 -15 43 0 13 -4
23 -10 23 -5 0 -10 11 -10 25 0 14 -4 25 -9 25 -5 0 -12 11 -15 25 -4 14 -11
25 -16 25 -6 0 -10 16 -10 35 0 19 5 35 11 35 6 0 17 7 25 15 9 8 31 15 50 15
24 0 34 -5 34 -15 0 -8 5 -15 11 -15 14 0 39 -25 39 -39 0 -6 5 -11 10 -11 6
0 10 -8 10 -18 0 -10 7 -27 15 -38 8 -10 15 -29 15 -41 0 -13 5 -23 10 -23 6
0 10 -11 10 -25 0 -14 4 -33 9 -43 12 -24 32 -82 39 -112 3 -14 8 -27 12 -30
5 -3 10 -18 11 -35 2 -16 10 -36 17 -43 6 -7 12 -24 12 -38 0 -13 5 -24 10
-24 6 0 10 -11 10 -25 0 -14 5 -25 10 -25 6 0 10 -6 10 -14 0 -7 11 -33 23
-57 13 -24 27 -56 31 -71 3 -16 11 -28 16 -28 6 0 10 -9 10 -20 0 -11 5 -20
10 -20 6 0 10 -5 10 -11 0 -21 -27 -37 -72 -44 -36 -5 -48 -3 -59 10 -45 54
-155 155 -169 155 -5 0 -10 7 -10 15 0 8 -6 15 -13 15 -7 0 -19 9 -27 20 -8
11 -20 20 -27 20 -7 0 -23 11 -37 25 -14 14 -29 25 -35 25 -14 0 -71 34 -71
43 0 4 -11 7 -25 7 -14 0 -25 4 -25 10 0 5 -16 12 -35 16 -19 3 -38 10 -41 15
-7 12 -214 12 -214 0 0 -5 -10 -13 -22 -17 -21 -6 -98 -76 -98 -89 0 -4 -7
-13 -15 -21 -8 -9 -15 -24 -15 -35 0 -10 -4 -19 -10 -19 -5 0 -10 -11 -10 -25
0 -14 -4 -25 -10 -25 -5 0 -10 -16 -10 -35 0 -34 1 -35 38 -35 35 -1 135 -30
149 -44 3 -3 12 -6 20 -6 7 0 31 -11 53 -25 22 -14 44 -25 50 -25 6 0 27 -16
47 -35 20 -19 40 -35 44 -35 5 0 35 -27 66 -60 73 -75 83 -87 83 -100 0 -5 3
-10 8 -10 4 0 16 -16 26 -35 11 -19 23 -35 28 -35 4 0 8 -11 8 -25 0 -14 5
-25 10 -25 6 0 10 -8 10 -17 0 -10 7 -27 15 -37 8 -11 15 -28 15 -38 0 -10 5
-18 10 -18 6 0 10 -13 10 -30 0 -16 4 -30 9 -30 5 0 12 -16 15 -35 4 -19 11
-35 16 -35 6 0 10 -11 10 -25 0 -14 5 -25 10 -25 6 0 10 -9 10 -19 0 -10 7
-21 15 -25 8 -3 15 -15 15 -26 0 -11 4 -20 8 -20 5 0 15 -11 22 -25 7 -14 19
-25 27 -25 7 0 13 -7 13 -16 0 -16 38 -53 55 -54 6 0 19 -11 29 -25 10 -14 27
-25 37 -25 11 0 19 -4 19 -9 0 -11 90 -38 155 -47 43 -6 85 -30 85 -49 0 -6
11 -20 38 -50 6 -7 12 -16 12 -20 0 -3 11 -18 25 -33 14 -15 25 -31 25 -36 0
-5 8 -16 18 -25 17 -17 37 -44 49 -71 4 -8 17 -25 30 -38 13 -13 23 -28 23
-35 0 -7 9 -19 20 -27 11 -8 20 -19 20 -25 1 -11 35 -55 44 -55 3 0 6 14 6 30
0 17 -4 30 -10 30 -5 0 -10 12 -10 28 -1 15 -7 38 -15 52 -8 14 -14 35 -15 48
0 12 -4 22 -10 22 -5 0 -10 16 -10 35 0 19 -4 35 -10 35 -5 0 -10 10 -10 23 0
13 -7 32 -15 43 -8 10 -15 31 -15 47 0 15 -4 27 -10 27 -5 0 -10 11 -10 24 0
13 -7 37 -15 52 -8 16 -15 39 -15 52 0 12 -4 22 -10 22 -5 0 -10 11 -10 25 0
24 -2 25 -72 25 -51 0 -68 3 -58 10 11 7 6 10 -21 10 -20 0 -50 7 -65 15 -16
8 -37 15 -46 15 -10 0 -18 4 -18 9 0 5 -10 11 -23 15 -13 3 -38 19 -55 36 -18
16 -36 30 -42 30 -5 0 -10 3 -10 8 0 4 -16 25 -35 47 -19 22 -35 45 -35 52 0
6 -3 13 -7 15 -11 4 -43 67 -43 84 0 8 -4 14 -10 14 -5 0 -10 14 -10 30 0 17
-4 30 -10 30 -5 0 -10 10 -10 23 0 12 -7 31 -15 41 -8 11 -15 30 -15 43 0 13
-4 23 -10 23 -5 0 -10 16 -10 35 0 19 -4 35 -10 35 -5 0 -12 11 -16 25 -3 14
-10 25 -15 25 -5 0 -9 9 -9 20 0 11 -4 20 -9 20 -5 0 -12 11 -15 25 -4 14 -11
25 -16 25 -6 0 -10 5 -10 11 0 13 -127 139 -140 139 -6 0 -10 4 -10 9 0 5 -8
11 -17 14 -10 3 -36 16 -58 28 -63 35 -68 36 -123 44 -42 5 -52 11 -52 26 0
12 7 19 18 19 10 0 24 6 31 13 8 8 47 12 118 12 76 0 108 -4 111 -12 2 -7 15
-13 28 -13 13 0 24 -4 24 -10 0 -5 9 -10 20 -10 11 0 23 -7 26 -15 4 -8 15
-15 25 -15 10 0 19 -4 19 -10 0 -5 5 -10 11 -10 7 0 22 -11 35 -25 13 -14 25
-25 28 -25 19 0 196 -176 196 -195 0 -10 11 -15 35 -15 19 0 35 5 35 10 0 6
11 10 25 10 14 0 25 5 25 10 0 6 11 10 24 10 14 0 31 7 40 15 8 8 28 15 45 15
17 0 31 5 31 10 0 6 -4 10 -10 10 -5 0 -10 5 -10 10 0 6 -11 23 -25 38 -14 15
-25 32 -25 39 0 7 -4 13 -10 13 -5 0 -10 7 -10 16 0 8 -7 22 -15 30 -8 9 -15
24 -15 35 0 10 -4 19 -10 19 -5 0 -10 14 -10 30 0 17 -3 30 -8 30 -7 0 -28 67
-38 125 -3 17 -9 39 -14 50 -5 11 -11 38 -13 60 -3 22 -10 58 -16 80 -6 22
-11 64 -11 93 0 28 -4 52 -10 52 -6 0 -10 30 -10 70 0 40 4 70 10 70 6 0 10
11 10 24 0 14 7 31 15 40 8 8 15 19 15 25 0 6 5 11 10 11 6 0 10 7 10 15 0 9
11 26 25 39 14 13 25 26 25 30 0 4 6 13 13 21 6 7 21 25 31 39 10 14 24 26 31
26 18 0 45 -45 45 -75 0 -14 5 -25 10 -25 12 0 13 -103 1 -116 -20 -21 -39
-334 -20 -334 5 0 9 -31 9 -69 0 -39 5 -73 10 -76 6 -3 10 -23 10 -43 0 -39
14 -71 23 -55 3 5 7 28 8 51 2 23 7 42 11 42 4 0 8 12 8 27 0 24 45 129 61
143 3 3 8 13 12 23 4 9 15 20 24 24 10 4 27 15 37 25 11 10 31 19 45 19 53 3
106 -3 109 -12 2 -5 15 -9 28 -9 13 0 24 -4 24 -10 0 -5 8 -10 19 -10 10 0 24
-7 31 -15 7 -8 19 -15 26 -15 8 0 14 -9 14 -20 0 -14 -9 -21 -35 -26 -19 -3
-35 -10 -35 -15 0 -5 -11 -9 -25 -9 -14 0 -25 -4 -25 -10 0 -5 -10 -10 -22
-10 -31 0 -108 -39 -116 -59 -3 -9 -12 -22 -19 -29 -7 -7 -13 -22 -13 -33 0
-10 -4 -19 -10 -19 -5 0 -10 -22 -10 -48 0 -26 -6 -54 -12 -60 -10 -10 -10
-17 0 -32 6 -11 12 -40 12 -65 0 -25 5 -45 10 -45 6 0 10 -8 10 -18 0 -10 7
-27 15 -38 8 -10 15 -25 15 -32 0 -8 12 -26 28 -42 59 -60 64 -69 48 -85 -8
-8 -19 -15 -25 -15 -5 0 -21 -11 -35 -25 -14 -14 -28 -25 -31 -25 -10 0 -35
-28 -35 -39 0 -6 -4 -11 -8 -11 -12 0 -42 -56 -42 -79 0 -12 -4 -21 -10 -21
-5 0 -10 -25 -10 -55 0 -30 5 -55 10 -55 6 0 10 -11 10 -24 0 -14 7 -31 15
-40 8 -8 15 -19 15 -25 0 -6 5 -11 10 -11 6 0 10 11 10 25 0 14 -5 25 -12 25
-9 0 -9 3 0 12 7 7 12 31 12 55 0 24 5 43 10 43 6 0 10 7 10 15 0 8 7 15 15
15 8 0 15 5 15 11 0 14 25 39 39 39 6 0 11 5 11 10 0 6 8 10 18 10 9 0 26 7
36 15 11 8 30 15 43 15 13 0 23 5 23 10 0 6 20 10 45 10 25 0 45 5 45 10 0 6
14 10 30 10 17 0 47 7 67 15 19 8 44 15 54 15 11 0 19 5 19 10 0 6 8 10 18 10
9 0 31 16 47 36 17 19 36 41 43 49 6 7 12 21 12 29 0 9 5 16 10 16 6 0 10 10
10 23 1 12 7 33 15 47 8 14 14 40 15 58 0 17 5 32 10 32 6 0 10 31 10 74 0 41
5 78 10 81 6 3 10 1 10 -4 0 -6 5 -11 11 -11 11 0 39 -25 39 -35 0 -4 6 -13
13 -20 31 -36 37 -45 37 -64 0 -11 5 -21 12 -23 8 -3 12 -29 12 -73 0 -44 -4
-70 -12 -73 -7 -2 -12 -12 -12 -23 0 -10 -4 -19 -10 -19 -5 0 -10 -6 -10 -13
0 -7 -11 -24 -25 -39 -14 -15 -25 -30 -25 -34 0 -4 -11 -17 -25 -30 -14 -13
-25 -29 -25 -36 0 -7 -11 -21 -24 -31 -13 -10 -30 -33 -37 -50 -7 -18 -15 -34
-19 -37 -14 -12 -40 -61 -40 -75 0 -8 -4 -15 -10 -15 -5 0 -10 -9 -10 -21 0
-11 -7 -27 -15 -35 -8 -9 -15 -31 -15 -50 0 -19 -4 -34 -9 -34 -19 0 -40 -365
-22 -383 6 -6 11 -30 11 -54 0 -24 5 -43 10 -43 6 0 10 -10 10 -23 0 -13 7
-32 15 -43 8 -10 15 -29 15 -41 0 -13 5 -23 10 -23 6 0 10 -7 10 -15 0 -17 51
-118 63 -123 4 -2 7 -10 7 -17 0 -17 33 -75 43 -75 4 0 7 -9 7 -20 0 -12 11
-33 25 -48 14 -15 25 -32 25 -39 0 -7 5 -13 10 -13 6 0 10 -7 10 -15 0 -8 3
-15 8 -15 8 0 41 -57 44 -75 1 -5 12 -18 25 -28 13 -10 23 -25 23 -34 0 -9 16
-30 35 -49 19 -18 35 -39 35 -47 0 -8 16 -30 35 -50 19 -20 35 -40 35 -44 0
-5 11 -20 25 -35 14 -15 25 -30 25 -33 0 -7 14 -24 48 -60 12 -13 22 -27 22
-31 0 -4 11 -17 25 -30 14 -13 25 -28 25 -34 0 -14 25 -40 39 -40 6 0 11 -5
11 -10 0 -6 11 -22 25 -36 14 -14 25 -29 25 -34 0 -4 20 -29 45 -54 25 -26 45
-49 45 -52 0 -5 23 -31 83 -94 20 -22 37 -42 37 -45 0 -3 23 -27 50 -55 28
-28 50 -55 50 -60 0 -6 36 -46 80 -90 44 -44 80 -82 80 -86 0 -10 28 -34 39
-34 6 0 11 -5 11 -10 0 -14 9 -25 108 -126 45 -46 82 -87 82 -90 0 -10 28 -34
39 -34 6 0 11 -5 11 -11 0 -14 25 -39 39 -39 6 0 11 -5 11 -10 0 -14 596 -610
610 -610 5 0 10 -5 10 -11 0 -6 6 -17 14 -25 8 -8 19 -14 25 -14 17 0 13 -15
-7 -33 -10 -10 -33 -17 -50 -17 -18 0 -32 -4 -32 -10 0 -5 -16 -10 -35 -10
-19 0 -35 -4 -35 -10 0 -5 -16 -12 -35 -16 -19 -3 -38 -10 -41 -15 -3 -5 -18
-9 -35 -9 -16 0 -29 -4 -29 -10 0 -5 -11 -10 -24 -10 -14 0 -31 -7 -40 -15 -8
-8 -24 -15 -35 -15 -12 0 -21 -4 -21 -10 0 -5 -10 -10 -23 -10 -13 0 -32 -7
-43 -15 -10 -8 -27 -15 -36 -15 -10 0 -18 -4 -18 -10 0 -5 -11 -10 -25 -10
-14 0 -25 -4 -25 -9 0 -5 -11 -12 -25 -15 -14 -4 -25 -11 -25 -16 0 -6 -9 -10
-20 -10 -11 0 -20 -4 -20 -10 0 -5 -11 -10 -25 -10 -14 0 -25 -4 -25 -10 0 -5
-11 -12 -25 -16 -14 -3 -25 -10 -25 -15 0 -5 -7 -9 -15 -9 -8 0 -15 -4 -15
-10 0 -5 -9 -10 -19 -10 -10 0 -21 -7 -25 -15 -3 -8 -15 -15 -26 -15 -11 0
-20 -4 -20 -10 0 -5 -6 -10 -14 -10 -8 0 -16 -3 -18 -7 -3 -8 -84 -63 -92 -63
-3 0 -17 -11 -32 -25 -15 -14 -31 -25 -37 -25 -5 0 -20 -11 -33 -25 -13 -14
-26 -25 -29 -25 -4 0 -13 -7 -22 -15 -8 -8 -19 -13 -24 -10 -5 4 -9 -1 -9 -9
0 -9 -4 -16 -9 -16 -8 0 -211 -196 -211 -204 0 -3 46 -9 190 -22 36 -3 69 -10
74 -14 5 -5 -8 -26 -30 -49 -46 -47 -64 -68 -64 -75 0 -3 -22 -28 -50 -57 -27
-29 -50 -57 -50 -63 0 -7 -9 -18 -20 -26 -11 -8 -20 -20 -20 -27 0 -7 -7 -13
-15 -13 -8 0 -15 -9 -15 -20 0 -11 -4 -20 -10 -20 -5 0 -10 -5 -10 -10 0 -6
-11 -23 -25 -38 -14 -15 -25 -31 -25 -36 0 -5 -11 -19 -25 -32 -14 -13 -25
-30 -25 -39 0 -8 -4 -15 -10 -15 -5 0 -10 -5 -10 -11 0 -6 -6 -17 -12 -24 -30
-33 -38 -45 -38 -55 0 -5 -4 -10 -10 -10 -5 0 -10 -9 -10 -19 0 -10 -7 -21
-15 -25 -8 -3 -15 -15 -15 -26 0 -11 -4 -20 -10 -20 -5 0 -10 -7 -10 -15 0 -8
-4 -15 -8 -15 -4 0 -21 -26 -37 -57 -17 -32 -36 -63 -42 -71 -7 -7 -13 -20
-13 -28 0 -8 -4 -14 -10 -14 -5 0 -10 -9 -10 -20 0 -11 -4 -20 -9 -20 -5 0
-12 -11 -15 -25 -4 -14 -11 -25 -16 -25 -6 0 -10 -9 -10 -20 0 -11 -4 -20 -10
-20 -5 0 -10 -9 -10 -20 0 -12 -10 -25 -25 -32 -14 -6 -25 -15 -25 -20 0 -4
-9 -8 -20 -8 -11 0 -20 -4 -20 -9 0 -5 -11 -12 -25 -15 -14 -4 -25 -11 -25
-16 0 -6 -6 -10 -13 -10 -18 0 -67 -23 -67 -32 0 -4 -16 -10 -35 -14 -19 -3
-35 -10 -35 -15 0 -5 -9 -9 -20 -9 -11 0 -20 -4 -20 -10 0 -5 -11 -10 -24 -10
-14 0 -28 -5 -31 -10 -3 -6 -16 -10 -28 -9 -12 0 -16 3 -9 6 6 2 12 19 12 36
0 18 7 41 15 51 8 11 15 30 15 43 0 13 5 23 10 23 6 0 10 16 10 35 0 19 5 35
10 35 6 0 10 10 10 23 0 13 7 32 15 43 8 10 15 29 15 42 0 12 5 22 10 22 6 0
10 14 10 30 0 17 4 30 9 30 5 0 12 13 16 30 4 16 11 32 16 35 5 4 9 17 9 31 0
13 5 24 10 24 6 0 10 11 10 25 0 14 4 25 10 25 5 0 12 11 16 25 3 14 10 25 15
25 5 0 9 11 9 25 0 14 5 25 10 25 6 0 10 8 10 18 0 9 7 26 15 36 8 11 15 28
15 37 0 10 3 19 8 21 10 4 42 67 42 84 0 8 5 14 10 14 6 0 10 9 10 20 0 12 11
33 25 48 14 15 25 33 25 40 0 14 19 50 38 70 6 7 12 20 12 28 0 8 5 14 10 14
6 0 10 9 10 20 0 11 4 20 9 20 5 0 12 11 15 25 4 14 11 25 16 25 6 0 10 7 10
15 0 8 5 15 10 15 6 0 10 7 10 15 0 9 11 26 25 39 14 13 25 31 25 40 0 9 5 16
10 16 6 0 10 6 10 14 0 8 7 16 15 20 8 3 15 14 15 23 0 10 9 25 20 33 11 8 23
29 26 47 3 18 10 33 15 33 5 0 9 5 9 11 0 6 6 17 13 24 29 33 37 45 37 55 0 5
5 10 10 10 6 0 10 5 10 11 0 6 6 17 13 24 29 33 37 45 37 55 0 5 5 10 10 10 6
0 10 9 10 20 0 11 7 20 15 20 8 0 15 7 15 15 0 8 5 15 10 15 6 0 10 5 10 10 0
11 10 25 48 65 12 13 22 28 22 32 0 5 11 20 25 35 14 15 25 30 25 33 0 3 11
18 25 33 14 15 25 31 25 35 0 5 16 23 35 41 19 19 35 36 35 40 0 7 13 24 48
61 12 13 22 27 22 30 0 10 28 35 39 35 6 0 11 5 11 10 0 11 10 25 48 65 12 13
22 29 22 35 0 5 7 10 15 10 8 0 15 4 15 8 0 5 9 18 21 31 12 12 18 25 14 29
-4 4 -10 1 -12 -5 -3 -7 -11 -13 -19 -13 -8 0 -25 -11 -38 -25 -13 -14 -26
-25 -30 -25 -3 0 -28 -21 -55 -47 -63 -60 -78 -73 -89 -73 -5 0 -14 -11 -21
-24 -7 -13 -24 -30 -37 -37 -13 -7 -24 -16 -24 -21 0 -13 -26 -38 -39 -38 -6
0 -11 -4 -11 -9 0 -5 -11 -19 -25 -32 -13 -13 -25 -30 -25 -37 0 -7 -4 -10
-10 -7 -5 3 -10 2 -10 -3 0 -5 -27 -37 -60 -71 -33 -34 -60 -65 -60 -67 0 -3
-6 -12 -12 -19 -27 -30 -38 -44 -38 -50 0 -3 -18 -23 -40 -45 -22 -22 -40 -44
-40 -49 0 -4 -13 -22 -30 -39 -16 -18 -30 -36 -30 -42 0 -5 -4 -10 -9 -10 -5
0 -13 -9 -16 -20 -6 -20 -45 -29 -45 -10 0 5 -22 32 -50 59 -27 28 -50 53 -50
56 0 4 -16 21 -35 39 -19 19 -35 39 -35 45 0 6 -16 27 -35 45 -19 19 -35 37
-35 41 0 3 -6 13 -12 20 -29 32 -38 45 -38 52 0 5 -11 17 -25 27 -14 10 -25
24 -25 31 0 7 -16 28 -35 48 -19 20 -35 41 -35 48 0 6 -11 22 -25 35 -14 13
-25 30 -25 39 0 8 -4 15 -10 15 -5 0 -10 6 -10 14 0 8 -7 16 -15 20 -8 3 -15
12 -15 21 0 8 -4 15 -10 15 -5 0 -10 7 -10 15 0 8 -4 15 -9 15 -5 0 -12 11
-15 25 -4 14 -11 25 -16 25 -6 0 -10 5 -10 11 0 6 -6 17 -12 24 -30 33 -38 45
-38 55 0 5 -4 10 -10 10 -5 0 -10 9 -10 20 0 11 -4 20 -9 20 -5 0 -12 11 -15
25 -4 14 -11 25 -16 25 -6 0 -10 7 -10 15 0 8 -4 15 -10 15 -5 0 -10 9 -10 19
0 10 -7 21 -15 25 -8 3 -15 15 -15 26 0 11 -4 20 -10 20 -5 0 -10 7 -10 15 0
8 -4 15 -10 15 -5 0 -10 9 -10 20 0 11 -7 23 -15 26 -8 4 -15 15 -15 25 0 10
-4 19 -10 19 -5 0 -10 8 -10 19 0 10 -7 24 -15 31 -8 7 -15 19 -15 26 0 8 -4
14 -10 14 -5 0 -10 9 -10 20 0 11 -4 20 -10 20 -5 0 -10 9 -10 19 0 11 -7 26
-15 35 -8 8 -15 19 -15 25 0 6 -4 11 -10 11 -5 0 -10 9 -10 21 0 11 -7 27 -15
35 -8 9 -15 24 -15 35 0 10 -4 19 -10 19 -5 0 -10 11 -10 25 0 14 -4 25 -9 25
-5 0 -12 11 -15 25 -4 14 -11 25 -16 25 -6 0 -10 11 -10 25 0 14 -4 25 -10 25
-5 0 -10 11 -10 25 0 14 -4 25 -10 25 -5 0 -12 11 -16 25 -3 14 -10 25 -15 25
-5 0 -9 9 -9 19 0 11 -11 41 -25 67 -14 26 -25 55 -25 65 0 11 -4 19 -10 19
-5 0 -10 9 -10 19 0 11 -11 41 -25 67 -14 26 -25 58 -25 70 0 13 -4 24 -10 24
-5 0 -10 10 -10 23 0 13 -7 32 -15 43 -8 10 -15 30 -15 44 0 25 30 60 51 60 5
0 20 11 33 25 13 14 31 25 40 25 9 0 16 5 16 10 0 6 6 10 14 10 8 0 16 7 20
15 3 8 12 15 21 15 8 0 15 5 15 10 0 6 4 10 9 10 6 0 22 11 37 25 15 14 33 25
40 25 8 0 14 5 14 10 0 6 7 10 15 10 8 0 15 7 15 15 0 8 7 15 15 15 8 0 15 5
15 10 0 6 9 10 20 10 11 0 20 6 20 13 0 8 11 20 25 27 14 7 25 17 25 22 0 4 6
8 13 8 7 0 24 11 39 25 15 14 30 25 33 25 4 0 13 6 20 13 31 27 44 37 50 37
10 0 35 28 35 39 0 6 9 11 20 11 11 0 20 5 20 10 0 15 -20 8 -57 -17 -17 -13
-36 -23 -42 -23 -6 0 -11 -4 -11 -10 0 -5 -11 -10 -25 -10 -14 0 -25 -4 -25
-10 0 -5 -11 -12 -25 -16 -14 -3 -25 -10 -25 -15 0 -5 -9 -9 -19 -9 -11 0 -21
-3 -23 -7 -4 -11 -67 -43 -84 -43 -8 0 -14 -4 -14 -8 0 -5 -16 -15 -35 -22
-20 -8 -41 -20 -47 -27 -6 -7 -19 -13 -29 -13 -11 0 -19 -4 -19 -10 0 -5 -8
-10 -19 -10 -10 0 -24 -7 -31 -15 -7 -8 -21 -15 -31 -15 -11 0 -19 -4 -19 -10
0 -5 -5 -10 -12 -10 -18 0 -88 -33 -88 -42 0 -4 -11 -8 -25 -8 -14 0 -25 -4
-25 -10 0 -5 -5 -10 -11 -10 -6 0 -17 -7 -25 -15 -9 -8 -24 -15 -35 -15 -10 0
-19 -4 -19 -10 0 -5 -9 -10 -20 -10 -11 0 -20 -4 -20 -10 0 -5 -9 -10 -20 -10
-17 0 -20 -7 -20 -40 0 -22 5 -40 10 -40 6 0 10 -12 10 -27 0 -16 7 -37 15
-47 8 -11 15 -28 15 -38 0 -10 5 -18 10 -18 6 0 10 -9 10 -20 0 -20 3 -27 34
-87 9 -17 16 -38 16 -47 0 -9 5 -16 10 -16 6 0 10 -11 10 -24 0 -13 3 -26 8
-28 10 -4 42 -67 42 -84 0 -8 5 -14 10 -14 6 0 10 -11 10 -24 0 -14 7 -31 15
-40 8 -8 15 -24 15 -35 0 -12 5 -21 10 -21 6 0 10 -8 10 -19 0 -10 7 -24 15
-31 8 -7 15 -19 15 -26 0 -8 5 -14 10 -14 6 0 10 -11 10 -24 0 -13 3 -26 8
-28 10 -4 42 -67 42 -84 0 -8 5 -14 10 -14 6 0 10 -6 10 -14 0 -18 32 -76 43
-76 4 0 7 -11 7 -25 0 -14 4 -25 9 -25 5 0 12 -11 15 -25 4 -14 11 -25 16 -25
6 0 10 -9 10 -20 0 -11 5 -20 10 -20 6 0 10 -7 10 -16 0 -8 11 -30 25 -48 14
-18 25 -40 25 -49 0 -10 5 -17 10 -17 6 0 10 -9 10 -19 0 -10 7 -21 15 -25 8
-3 15 -15 15 -26 0 -11 5 -20 10 -20 6 0 10 -7 10 -15 0 -8 5 -15 10 -15 6 0
10 -9 10 -20 0 -11 7 -23 15 -26 8 -4 15 -15 15 -25 0 -10 5 -19 10 -19 6 0
10 -9 10 -20 0 -11 7 -23 15 -26 8 -4 15 -14 15 -23 0 -9 9 -27 20 -41 11 -14
20 -31 20 -38 0 -7 7 -15 15 -18 8 -4 15 -17 15 -30 0 -13 4 -24 8 -24 5 0 17
-16 28 -35 10 -19 22 -35 26 -35 5 0 8 -9 8 -21 0 -11 6 -27 13 -34 29 -33 37
-45 37 -55 0 -5 5 -10 10 -10 6 0 10 -9 10 -20 0 -11 6 -23 13 -26 8 -3 20
-20 27 -39 8 -19 17 -35 22 -35 4 0 8 -6 8 -13 0 -7 11 -24 25 -39 14 -15 25
-34 25 -43 0 -9 11 -28 25 -43 14 -15 25 -32 25 -39 0 -7 5 -13 10 -13 6 0 10
-5 10 -11 0 -6 6 -17 13 -24 24 -28 32 -40 49 -77 10 -21 22 -38 28 -38 5 0
10 -9 10 -20 0 -11 5 -20 10 -20 6 0 10 -5 10 -11 0 -6 6 -17 13 -24 29 -33
37 -45 37 -55 0 -5 3 -10 8 -10 4 0 16 -16 26 -35 11 -19 23 -35 28 -35 4 0 8
-11 8 -25 0 -14 -4 -25 -10 -25 -5 0 -10 -7 -10 -15 0 -9 -11 -26 -25 -39 -14
-13 -25 -29 -25 -36 0 -7 -11 -28 -25 -46 -14 -18 -25 -37 -25 -43 0 -6 -4
-11 -10 -11 -5 0 -10 -5 -10 -11 0 -6 -11 -25 -25 -43 -14 -18 -25 -40 -25
-49 0 -10 -3 -17 -8 -17 -4 0 -16 -16 -26 -35 -11 -19 -23 -35 -28 -35 -4 0
-8 -11 -8 -25 0 -14 -3 -25 -7 -25 -11 0 -43 -58 -43 -76 0 -8 -4 -14 -10 -14
-5 0 -10 -7 -10 -15 0 -8 -4 -15 -10 -15 -5 0 -12 -11 -16 -25 -3 -14 -10 -25
-15 -25 -5 0 -9 -9 -9 -20 0 -11 -4 -20 -9 -20 -5 0 -12 -11 -15 -25 -4 -14
-11 -25 -16 -25 -6 0 -10 -11 -10 -25 0 -14 -4 -25 -10 -25 -5 0 -10 -6 -10
-14 0 -7 -7 -19 -15 -26 -8 -7 -15 -21 -15 -31 0 -11 -4 -19 -10 -19 -5 0 -10
-7 -10 -15 0 -8 -4 -15 -10 -15 -5 0 -10 -6 -10 -14 0 -7 -11 -34 -25 -60 -14
-26 -25 -53 -25 -60 0 -8 -7 -19 -15 -26 -8 -7 -15 -21 -15 -31 0 -11 -4 -19
-10 -19 -5 0 -10 -11 -10 -25 0 -14 -4 -25 -9 -25 -5 0 -12 -11 -15 -25 -4
-14 -11 -25 -16 -25 -6 0 -10 -11 -10 -25 0 -14 -4 -25 -10 -25 -5 0 -10 -11
-10 -25 0 -14 -4 -25 -8 -25 -10 0 -42 -71 -42 -93 0 -8 -4 -17 -10 -19 -5 -1
-11 -13 -13 -26 -5 -34 -51 -72 -87 -72 -16 0 -30 -4 -30 -9 0 -5 -18 -11 -40
-15 -22 -3 -40 -11 -40 -16 0 -6 -20 -10 -45 -10 -25 0 -45 -4 -45 -10 0 -5
-8 -10 -17 -10 -10 0 -37 -7 -60 -16 -39 -15 -43 -20 -43 -50 0 -19 -4 -34
-10 -34 -5 0 -10 -10 -10 -22 -1 -13 -7 -34 -15 -48 -8 -14 -14 -35 -15 -47 0
-13 -4 -23 -10 -23 -5 0 -10 -15 -10 -34 0 -19 -4 -37 -9 -41 -6 -3 -13 -26
-17 -50 -3 -25 -10 -45 -15 -45 -5 0 -9 -20 -9 -45 0 -25 -4 -45 -10 -45 -5 0
-10 -16 -10 -36 0 -19 -5 -45 -12 -57 -11 -21 -24 -78 -34 -162 -3 -22 -9 -49
-14 -60 -12 -26 -30 -140 -37 -228 -2 -37 -9 -65 -14 -61 -7 4 -15 -108 -10
-139 1 -5 -4 -25 -10 -45 -17 -54 -28 -208 -35 -470 -3 -127 -10 -232 -15
-232 -5 0 -9 -58 -9 -130 0 -72 4 -130 9 -130 5 0 12 -98 15 -222 4 -183 18
-427 26 -473 1 -5 6 8 11 30 4 22 8 154 8 293 1 156 5 251 10 247 6 -3 12 46
15 122 5 146 22 348 32 378 6 18 15 94 30 250 3 33 10 66 16 72 6 7 13 42 16
78 2 36 9 65 13 65 5 0 9 22 9 49 0 28 4 53 10 56 6 3 10 23 10 43 0 20 7 50
15 66 8 15 15 43 15 62 0 18 5 36 10 39 6 3 10 21 10 39 0 19 7 47 15 62 8 16
15 41 15 57 0 15 5 27 10 27 6 0 10 16 10 35 0 19 5 35 10 35 6 0 10 15 10 34
0 18 7 39 15 46 8 7 15 25 15 41 0 16 5 29 10 29 6 0 10 14 10 31 0 17 7 37
15 45 8 9 15 26 15 40 0 13 5 24 10 24 6 0 10 11 10 25 0 14 5 25 10 25 6 0
10 8 10 18 0 10 7 27 15 38 8 10 15 27 15 37 0 9 5 17 10 17 6 0 10 9 10 20 0
26 30 60 52 60 10 0 18 5 18 10 0 6 11 10 25 10 14 0 25 4 25 10 0 5 11 12 25
16 14 3 25 10 25 15 0 5 11 9 25 9 14 0 25 5 25 10 0 6 9 10 19 10 10 0 21 7
25 15 3 8 15 15 26 15 11 0 20 5 20 10 0 6 11 10 25 10 14 0 25 4 25 10 0 5
11 12 25 16 14 3 25 10 25 15 0 5 9 9 20 9 11 0 20 3 20 8 0 4 30 21 65 37 36
17 65 33 65 38 0 4 8 7 19 7 10 0 24 7 31 15 7 8 19 15 26 15 8 0 14 5 14 10
0 6 11 10 25 10 14 0 25 4 25 8 0 5 18 17 40 28 22 10 40 22 40 27 0 4 8 7 19
7 10 0 24 7 31 15 7 8 19 15 26 15 8 0 14 5 14 10 0 6 9 10 20 10 11 0 20 4
20 9 0 5 11 12 25 15 14 4 25 11 25 16 0 6 9 10 20 10 11 0 20 3 20 8 0 4 18
16 40 26 22 11 40 23 40 28 0 4 11 8 25 8 14 0 25 3 25 8 0 4 16 16 35 26 19
11 35 26 35 35 0 9 7 25 15 35 8 11 15 30 15 43 0 13 5 23 10 23 6 0 10 16 10
35 0 19 5 35 10 35 6 0 10 11 10 24 0 14 7 31 15 40 8 8 15 24 15 35 0 12 5
21 10 21 6 0 10 11 10 25 0 14 4 25 9 25 5 0 13 10 16 23 12 40 30 77 37 77 5
0 8 9 8 19 0 11 6 26 13 33 7 7 19 29 27 48 8 19 20 41 27 48 7 7 13 20 13 28
0 8 5 14 10 14 6 0 10 9 10 20 0 11 4 20 9 20 5 0 12 11 15 25 4 14 11 25 16
25 6 0 10 7 10 15 0 8 5 15 10 15 6 0 10 9 10 20 0 11 4 20 8 20 5 0 17 16 28
35 10 19 22 35 26 35 5 0 8 5 8 11 0 6 6 17 12 24 27 30 38 44 38 50 0 3 11
18 25 33 14 15 25 31 25 35 0 5 16 25 35 45 19 20 35 40 35 44 0 4 14 22 31
39 31 32 33 32 153 39 66 4 127 5 134 3 6 -3 12 0 12 6 0 7 34 11 100 11 60 0
100 4 100 10 0 6 7 10 16 10 8 0 12 -4 9 -10 -3 -5 -1 -10 4 -10 6 0 11 4 11
9 0 5 30 11 68 13 37 3 75 8 85 13 26 11 22 -21 -8 -53 -14 -15 -25 -32 -25
-39 0 -7 -4 -13 -10 -13 -5 0 -10 -5 -10 -10 0 -10 -8 -22 -37 -55 -7 -7 -13
-18 -13 -24 0 -6 -4 -11 -10 -11 -5 0 -10 -6 -10 -13 0 -7 -10 -23 -22 -37
-13 -14 -30 -38 -38 -55 -8 -16 -21 -34 -27 -38 -7 -4 -13 -17 -13 -27 0 -11
-4 -20 -8 -20 -5 0 -17 -16 -28 -35 -10 -19 -22 -35 -26 -35 -5 0 -8 -8 -8
-19 0 -10 -11 -30 -25 -45 -14 -15 -25 -34 -25 -42 0 -7 -4 -14 -10 -14 -5 0
-10 -6 -10 -14 0 -8 -6 -21 -13 -28 -7 -7 -20 -28 -28 -45 -7 -18 -17 -33 -20
-33 -4 0 -10 -11 -13 -25 -4 -14 -11 -25 -16 -25 -6 0 -10 -11 -10 -25 0 -14
-4 -25 -10 -25 -5 0 -10 -9 -10 -20 0 -11 -4 -20 -9 -20 -5 0 -12 -11 -15 -25
-4 -14 -11 -25 -16 -25 -6 0 -10 -11 -10 -25 0 -14 -4 -25 -8 -25 -4 0 -16
-22 -27 -50 -11 -28 -23 -50 -27 -50 -4 0 -8 -13 -8 -30 0 -16 -3 -30 -8 -30
-4 0 -15 -23 -25 -51 -14 -39 -16 -53 -6 -65 6 -8 16 -14 22 -14 5 0 17 -8 26
-19 9 -10 26 -21 39 -25 12 -4 22 -12 22 -17 0 -5 5 -9 11 -9 6 0 17 -7 26
-15 8 -8 18 -13 23 -10 4 3 10 -1 13 -8 2 -7 30 -26 61 -42 31 -16 56 -33 56
-37 0 -4 7 -8 15 -8 8 0 15 -4 15 -10 0 -5 8 -10 19 -10 10 0 24 -7 31 -15 7
-8 19 -15 26 -15 8 0 14 -4 14 -10 0 -5 6 -10 14 -10 18 0 76 -32 76 -42 0 -5
9 -8 20 -8 11 0 20 -4 20 -10 0 -5 9 -10 20 -10 11 0 20 -4 20 -10 0 -5 11
-12 25 -16 14 -3 25 -10 25 -15 0 -5 11 -9 25 -9 14 0 25 -4 25 -10 0 -5 9
-10 20 -10 11 0 23 -7 26 -15 4 -8 15 -15 25 -15 10 0 19 -4 19 -10 0 -5 9
-10 21 -10 11 0 27 -7 35 -15 9 -8 24 -15 34 -15 10 0 22 -4 25 -10 3 -5 15
-10 26 -10 10 0 19 -4 19 -9 0 -5 14 -12 30 -16 17 -4 30 -11 30 -16 0 -5 11
-9 25 -9 14 0 25 -4 25 -10 0 -5 8 -10 18 -10 17 0 60 -17 104 -41 10 -5 27
-9 38 -9 11 0 20 -4 20 -10 0 -5 10 -10 23 -10 13 0 32 -7 43 -15 10 -8 31
-15 46 -15 15 0 30 -4 33 -10 3 -6 14 -10 25 -10 19 0 30 19 30 51 0 10 5 19
10 19 6 0 10 9 10 20 0 11 11 45 25 76 14 31 25 65 25 75 0 11 5 19 10 19 6 0
10 9 10 21 0 11 7 27 15 35 8 9 15 26 15 40 0 13 5 24 10 24 6 0 10 11 10 25
0 14 5 25 10 25 6 0 10 8 10 18 0 9 7 26 15 36 8 11 15 28 15 38 0 10 5 18 10
18 6 0 10 9 10 19 0 11 4 22 9 26 5 3 12 19 16 35 4 17 11 30 16 30 5 0 9 9 9
19 0 11 5 23 10 26 6 3 10 15 10 26 0 10 4 19 10 19 5 0 12 11 16 25 3 14 10
25 15 25 5 0 9 11 9 25 0 14 4 25 10 25 5 0 12 11 16 25 3 14 10 25 15 25 5 0
9 9 9 20 0 11 4 20 8 20 4 0 16 23 27 50 11 28 22 50 26 50 4 0 14 16 23 35 9
19 21 35 26 35 6 0 10 9 10 20 0 11 5 20 10 20 6 0 10 7 10 15 0 8 4 15 9 15
5 0 13 10 17 23 4 12 12 25 18 29 6 4 7 11 2 15 -5 4 -11 2 -13 -4 -3 -7 -11
-13 -19 -13 -8 0 -14 -5 -14 -10 0 -6 -21 -32 -47 -59 -56 -58 -73 -78 -73
-86 0 -4 -20 -26 -45 -51 -25 -24 -45 -46 -45 -49 0 -4 -6 -13 -12 -20 -27
-30 -38 -44 -38 -50 0 -3 -10 -17 -22 -30 -34 -36 -48 -53 -48 -60 0 -3 -11
-16 -25 -29 -14 -13 -25 -29 -25 -36 0 -7 -11 -23 -25 -36 -14 -13 -25 -28
-25 -34 0 -5 -4 -10 -10 -10 -5 0 -10 -9 -10 -20 0 -11 -7 -20 -15 -20 -8 0
-15 -7 -15 -15 0 -8 -4 -15 -10 -15 -5 0 -10 -9 -10 -20 0 -11 -4 -20 -8 -20
-5 0 -17 -16 -28 -35 -10 -19 -22 -35 -25 -35 -4 0 -10 -11 -13 -25 -4 -14
-11 -25 -16 -25 -6 0 -10 -7 -10 -15 0 -8 -4 -15 -10 -15 -5 0 -10 -9 -10 -20
0 -11 -4 -20 -10 -20 -5 0 -10 -7 -10 -15 0 -19 -33 -19 -96 0 -27 8 -64 15
-82 15 -20 0 -31 4 -27 10 4 6 -12 10 -39 10 -25 0 -46 4 -46 10 0 5 -16 12
-35 16 -19 3 -38 10 -41 15 -3 5 -18 9 -35 9 -16 0 -29 5 -29 10 0 6 -10 10
-23 10 -13 0 -32 7 -43 15 -10 8 -27 15 -36 15 -10 0 -18 5 -18 10 0 6 -7 10
-15 10 -9 0 -33 11 -55 25 -22 14 -44 25 -50 25 -5 0 -10 5 -10 10 0 6 -9 10
-19 10 -10 0 -21 7 -25 15 -3 8 -12 15 -21 15 -8 0 -15 5 -15 10 0 6 -5 10
-10 10 -6 0 -31 20 -57 45 -25 25 -49 45 -54 45 -5 0 -9 4 -9 9 0 5 -21 31
-47 57 -45 45 -48 50 -46 98 0 28 6 52 12 54 6 2 11 19 11 38 0 19 4 34 9 34
5 0 12 13 16 30 4 16 11 32 16 35 5 4 9 20 9 36 0 18 4 28 10 24 6 -3 10 4 10
17 0 14 7 33 15 44 8 10 15 29 15 42 0 12 5 22 10 22 6 0 10 11 10 25 0 14 5
25 10 25 6 0 10 8 10 18 0 10 7 27 15 38 8 10 15 27 15 37 0 9 5 17 10 17 6 0
10 11 10 25 0 14 4 25 8 25 4 0 16 22 27 50 11 28 23 50 27 50 4 0 8 8 8 18 0
10 7 27 15 38 8 10 15 27 15 37 0 9 5 17 10 17 6 0 10 7 10 15 0 8 5 15 10 15
6 0 10 4 10 10 0 17 34 90 42 90 5 0 8 9 8 19 0 10 7 21 15 25 8 3 15 15 15
26 0 11 4 20 8 20 5 0 17 16 28 35 17 32 22 35 66 35 26 0 49 4 52 9 3 4 31
11 62 14 31 3 62 11 67 16 6 6 30 11 54 11 24 0 43 4 43 9 0 5 19 11 43 14 58
8 154 31 163 40 4 4 20 7 36 7 15 0 36 4 46 9 33 16 87 34 122 39 19 2 38 9
41 14 9 14 112 15 116 1 3 -7 11 -13 19 -13 8 0 14 -5 14 -11 0 -5 4 -7 10 -4
6 3 10 1 10 -4 0 -6 7 -11 15 -11 8 0 15 -4 15 -10 0 -5 9 -10 20 -10 11 0 20
-4 20 -8 0 -5 16 -17 35 -28 19 -10 35 -22 35 -25 0 -4 11 -10 25 -13 14 -4
25 -11 25 -16 0 -6 5 -10 11 -10 16 0 59 -52 59 -71 0 -8 7 -24 15 -35 8 -10
15 -31 15 -46 0 -16 5 -28 10 -28 6 0 10 -10 10 -22 0 -13 7 -32 15 -42 8 -11
15 -28 15 -38 0 -10 5 -18 10 -18 6 0 10 -11 10 -25 0 -14 5 -25 10 -25 6 0
10 -4 10 -10 0 -17 34 -90 42 -90 5 0 8 -11 8 -25 0 -14 4 -25 9 -25 5 0 13
-10 16 -22 12 -41 30 -78 37 -78 5 0 8 -8 8 -19 0 -10 7 -24 15 -31 8 -7 15
-19 15 -26 0 -8 5 -14 10 -14 6 0 10 -6 10 -14 0 -18 32 -76 43 -76 4 0 7 -7
7 -15 0 -8 5 -15 10 -15 6 0 10 -9 10 -20 0 -11 7 -23 15 -26 8 -4 15 -15 15
-25 0 -10 5 -19 10 -19 6 0 10 -7 10 -15 0 -8 3 -15 8 -15 4 0 16 -16 26 -35
11 -19 23 -35 28 -35 4 0 8 -7 8 -15 0 -8 11 -25 25 -39 14 -14 25 -30 25 -36
0 -5 3 -10 8 -10 4 0 16 -16 26 -35 11 -19 23 -35 27 -35 4 0 10 -9 14 -19 3
-11 26 -40 50 -66 25 -25 45 -49 45 -51 0 -6 7 -14 55 -68 19 -22 35 -44 35
-48 0 -4 7 -8 15 -8 8 0 15 -3 15 -7 0 -13 47 -63 59 -63 6 0 11 -5 11 -11 0
-14 25 -39 39 -39 6 0 11 -5 11 -11 0 -11 25 -39 35 -39 3 0 28 -21 55 -47 58
-57 77 -73 85 -73 3 0 25 -20 49 -45 25 -25 49 -45 55 -45 5 0 21 -11 35 -25
14 -14 28 -25 31 -25 4 0 13 -6 20 -12 33 -30 45 -38 55 -38 5 0 10 -4 10 -10
0 -5 5 -10 11 -10 6 0 25 -11 43 -25 18 -14 38 -25 45 -25 7 0 19 -6 26 -13
33 -29 45 -37 55 -37 5 0 10 -4 10 -10 0 -5 6 -10 14 -10 17 0 80 -32 84 -42
2 -5 12 -8 23 -8 10 0 19 -4 19 -9 0 -5 11 -12 25 -15 14 -4 25 -11 25 -16 0
-6 11 -10 25 -10 14 0 25 -4 25 -10 0 -5 11 -10 24 -10 13 0 29 -7 36 -15 7
-8 23 -15 36 -15 13 0 24 -4 24 -10 0 -5 7 -10 16 -10 23 0 118 -33 125 -44 4
-5 12 -5 19 -1 15 9 6 123 -10 139 -6 6 -10 34 -10 63 0 29 -4 53 -10 53 -5 0
-10 15 -10 34 0 18 -7 47 -15 62 -8 16 -15 44 -15 62 0 17 -4 32 -10 32 -5 0
-10 18 -10 40 0 22 -4 40 -10 40 -5 0 -10 12 -10 28 0 15 -7 36 -15 46 -8 11
-15 35 -15 53 0 18 -4 33 -10 33 -5 0 -10 11 -10 24 0 14 -4 27 -9 30 -5 3
-12 22 -15 41 -4 19 -11 35 -16 35 -6 0 -10 11 -10 25 0 25 -2 32 -34 92 -9
17 -16 41 -16 52 0 12 -4 21 -10 21 -5 0 -10 9 -10 19 0 11 -4 22 -9 26 -5 3
-12 19 -16 35 -4 17 -11 30 -16 30 -5 0 -9 11 -9 25 0 14 -4 25 -10 25 -5 0
-10 11 -10 24 0 13 -7 26 -15 30 -8 3 -15 15 -15 26 0 11 -4 20 -10 20 -5 0
-10 11 -10 25 0 14 -4 25 -10 25 -5 0 -12 11 -16 25 -3 14 -10 25 -15 25 -5 0
-9 9 -9 20 0 11 -4 20 -9 20 -5 0 -12 11 -15 25 -4 14 -11 25 -16 25 -6 0 -10
9 -10 20 0 11 -3 20 -7 20 -5 0 -17 18 -27 40 -11 22 -23 40 -28 40 -4 0 -8 9
-8 20 0 11 -3 20 -7 20 -5 0 -17 18 -27 40 -11 22 -23 40 -28 40 -4 0 -8 7 -8
15 0 8 -4 15 -10 15 -5 0 -10 9 -10 19 0 10 -7 21 -15 25 -8 3 -15 11 -15 18
0 7 -11 26 -25 42 -14 16 -25 35 -25 43 0 7 -4 13 -10 13 -5 0 -10 5 -10 10 0
6 -11 22 -25 36 -14 14 -25 29 -25 35 0 5 -10 21 -22 34 -35 37 -48 54 -48 61
0 4 -11 17 -25 30 -14 13 -25 28 -25 34 0 5 -4 10 -10 10 -5 0 -10 6 -10 14 0
7 -11 22 -25 32 -14 10 -25 22 -25 27 0 4 -10 19 -22 32 -32 34 -48 53 -48 59
0 2 -59 63 -130 136 -71 73 -130 136 -130 141 0 5 -5 9 -11 9 -6 0 -46 36 -90
80 -43 44 -83 80 -89 80 -5 0 -10 4 -10 9 0 5 -10 13 -22 17 -13 4 -26 12 -30
18 -6 8 -8 7 -8 -1 0 -7 -7 -13 -15 -13 -8 0 -15 -7 -15 -15 0 -8 -7 -15 -15
-15 -8 0 -15 -4 -15 -10 0 -5 -7 -10 -15 -10 -9 0 -26 -11 -39 -25 -13 -14
-28 -25 -33 -25 -6 0 -22 -11 -37 -25 -15 -14 -31 -25 -37 -25 -5 0 -9 -3 -9
-7 0 -5 -20 -21 -45 -38 -24 -16 -45 -33 -45 -37 0 -5 -7 -8 -15 -8 -9 0 -26
-11 -39 -25 -23 -25 -66 -34 -66 -15 0 6 -11 10 -25 10 -14 0 -25 4 -25 10 0
5 -11 12 -25 16 -14 3 -25 10 -25 15 0 5 -7 9 -15 9 -16 0 -127 107 -168 162
-15 20 -27 44 -27 53 0 9 -4 13 -10 10 -6 -3 -10 4 -10 17 -1 13 -7 34 -15 48
-8 14 -14 40 -15 58 0 17 -4 32 -10 32 -6 0 -10 34 -10 81 0 89 8 105 60 115
17 4 33 11 36 15 3 5 18 9 34 9 16 0 31 4 34 9 3 5 27 12 53 16 93 14 17 26
-149 23 l-163 -3 -3 -35 c-1 -19 -7 -44 -12 -55 -5 -11 -11 -40 -14 -65 -8
-73 -24 -163 -35 -200 -6 -19 -11 -54 -11 -77 0 -24 -4 -43 -10 -43 -6 0 -10
-26 -10 -58 0 -47 -4 -62 -25 -85 -23 -24 -33 -27 -85 -27 -33 0 -60 -4 -60
-9 0 -4 -34 -11 -76 -13 -41 -3 -80 -10 -87 -17 -6 -6 -44 -11 -89 -11 -43 0
-78 -4 -78 -9 0 -5 -35 -12 -77 -15 -157 -10 -309 -26 -344 -36 -20 -5 -75
-10 -123 -10 -47 0 -86 -4 -86 -9 0 -6 -12 -6 -30 -1 -18 5 -30 5 -30 -1 0 -5
-34 -9 -75 -9 -41 0 -75 3 -75 6 0 9 44 43 55 44 6 0 17 9 25 20 8 11 18 20
23 20 5 0 15 6 22 13 33 29 45 37 55 37 5 0 10 4 10 9 0 5 11 12 25 15 14 4
25 11 25 16 0 6 9 10 19 10 11 0 21 3 23 8 4 10 67 42 84 42 8 0 14 4 14 8 0
4 23 16 50 27 28 11 50 23 50 27 0 4 11 8 25 8 14 0 25 5 25 10 0 6 11 10 24
10 13 0 29 7 36 15 7 8 23 15 36 15 13 0 24 5 24 10 0 6 13 10 29 10 17 0 32
4 35 9 3 5 22 12 41 15 19 4 35 11 35 16 0 6 16 10 35 10 19 0 35 5 35 10 0 6
10 10 23 10 12 1 33 7 47 15 14 8 37 14 53 15 15 0 27 5 27 10 0 6 15 10 34
10 19 0 38 5 41 10 3 6 18 10 33 10 15 1 38 7 52 15 14 8 40 14 58 15 17 0 32
5 32 10 0 6 -4 10 -10 10 -5 0 -10 5 -10 11 0 11 -25 39 -35 39 -4 0 -22 16
-41 35 -18 19 -38 35 -42 35 -5 0 -18 11 -28 25 -10 14 -22 25 -26 25 -5 0
-35 27 -68 60 -33 33 -64 60 -69 60 -5 0 -41 32 -80 70 -39 39 -74 70 -77 70
-10 0 -34 28 -34 39 0 6 -5 11 -10 11 -11 0 -25 10 -65 48 -13 12 -29 22 -35
22 -5 0 -10 5 -10 11 0 11 -25 39 -35 39 -10 0 -35 28 -35 39 0 6 -5 11 -10
11 -6 0 -38 27 -71 60 -33 33 -64 60 -70 60 -11 0 -39 25 -39 35 0 8 -27 35
-35 35 -10 0 -35 28 -35 39 0 6 -4 11 -10 11 -10 0 -590 576 -590 586 0 10
-28 34 -39 34 -6 0 -11 7 -11 15 0 8 -27 42 -60 75 -33 33 -60 62 -60 65 0 3
-17 23 -37 44 -21 22 -47 51 -58 67 -11 15 -37 44 -57 65 -21 21 -38 41 -38
46 0 5 -16 26 -35 46 -19 20 -35 40 -35 43 0 3 -6 12 -12 19 -28 31 -38 44
-38 51 0 4 -11 17 -25 30 -14 13 -25 28 -25 34 0 6 -16 26 -35 44 -19 19 -35
41 -35 50 0 9 -4 16 -10 16 -5 0 -10 6 -10 14 0 8 -7 16 -15 20 -8 3 -15 15
-15 26 0 11 -4 20 -8 20 -4 0 -16 15 -27 33 -10 17 -21 34 -25 37 -3 3 -15 22
-26 43 -36 73 -39 77 -46 77 -5 0 -8 6 -8 14 0 17 -32 80 -42 84 -5 2 -8 10
-8 18 0 14 -3 22 -33 82 -9 19 -17 40 -17 48 0 8 -4 14 -10 14 -5 0 -10 18
-10 40 0 22 -4 40 -9 40 -5 0 -15 26 -21 58 -16 71 -25 302 -12 302 5 0 12 24
15 52 4 29 11 54 17 56 5 2 10 15 10 28 0 13 5 24 10 24 6 0 10 11 10 25 0 14
4 25 10 25 5 0 12 11 16 25 3 14 9 25 13 25 4 0 15 15 26 33 10 17 27 39 37
48 10 9 18 20 18 23 0 4 6 14 13 21 29 33 37 45 37 55 0 5 5 10 10 10 6 0 10
8 10 18 0 9 7 26 15 36 8 11 15 30 15 43 0 13 5 23 10 23 6 0 10 43 10 110 0
67 -4 110 -10 110 -5 0 -10 14 -10 30 0 17 -4 30 -10 30 -5 0 -12 11 -16 25
-3 14 -10 25 -15 25 -5 0 -9 5 -9 11 0 6 -6 17 -12 24 -27 30 -38 44 -38 50 0
6 -80 85 -87 85 -2 0 -11 6 -18 13 -33 29 -45 37 -55 37 -5 0 -10 3 -10 8 0 4
-15 16 -34 26 -33 18 -76 15 -76 -5 0 -5 -6 -9 -13 -9 -7 0 -14 -12 -15 -27
-1 -15 -7 -32 -12 -37 -6 -6 -10 -22 -10 -37 0 -14 -6 -44 -14 -65 -7 -22 -14
-73 -15 -114 -1 -41 -6 -76 -12 -78 -5 -2 -9 -19 -9 -38 0 -19 -4 -34 -10 -34
-5 0 -10 -7 -10 -16 0 -9 -14 -30 -32 -47 -24 -23 -40 -30 -72 -30 -22 0 -42
5 -44 11 -2 7 -11 12 -19 12 -19 0 -103 88 -103 107 0 7 -4 13 -10 13 -5 0
-10 11 -10 25 0 14 -4 25 -10 25 -5 0 -10 20 -10 45 0 25 5 45 10 45 6 0 10 9
10 19 0 23 83 81 117 81 13 0 23 5 23 10 0 6 10 10 23 10 13 0 32 7 43 15 10
8 25 15 33 15 14 0 71 59 71 73 0 4 11 20 25 35 14 15 25 32 25 39 0 7 5 13
10 13 6 0 10 9 10 21 0 19 -119 149 -137 149 -5 0 -20 11 -35 25 -15 14 -36
25 -48 25 -11 0 -20 5 -20 10 0 6 -8 10 -17 10 -10 0 -36 7 -60 16 -44 17
-146 13 -158 -7 -4 -5 -19 -9 -36 -9 -16 0 -29 -4 -29 -10 0 -5 -7 -10 -16
-10 -8 0 -22 -7 -30 -15 -9 -8 -20 -15 -25 -15 -5 0 -9 7 -9 15 0 8 4 15 9 15
5 0 12 20 15 45 4 24 11 47 17 50 15 10 11 152 -6 192 -8 19 -15 44 -15 54 0
11 -4 19 -10 19 -5 0 -10 9 -10 21 0 11 -6 27 -12 34 -23 25 -33 39 -46 65
-15 28 -66 90 -76 90 -3 0 -6 -4 -6 -10z m4641 -5720 c49 -50 89 -94 89 -99 0
-4 11 -14 25 -21 14 -7 25 -19 25 -27 0 -7 16 -29 35 -47 19 -19 35 -38 35
-42 0 -3 11 -17 25 -30 14 -13 25 -27 25 -31 0 -5 20 -30 45 -57 25 -27 45
-53 45 -57 0 -5 11 -19 25 -33 14 -14 25 -29 25 -33 0 -5 11 -20 25 -35 14
-15 25 -32 25 -38 0 -5 4 -10 9 -10 5 0 13 -10 17 -22 4 -13 15 -30 25 -39 11
-9 19 -21 19 -26 0 -5 11 -23 25 -39 14 -16 25 -35 25 -42 0 -7 11 -25 25 -40
14 -15 25 -32 25 -39 0 -7 4 -13 9 -13 5 0 12 -11 15 -25 4 -14 11 -25 16 -25
6 0 10 -9 10 -20 0 -11 5 -20 10 -20 6 0 10 -7 10 -15 0 -8 4 -15 9 -15 5 0
12 -11 15 -25 4 -14 11 -25 16 -25 6 0 10 -9 10 -20 0 -11 5 -20 10 -20 6 0
10 -8 10 -19 0 -10 7 -24 15 -31 8 -7 15 -21 15 -31 0 -11 5 -19 10 -19 6 0
10 -11 10 -25 0 -14 4 -25 9 -25 5 0 12 -11 15 -25 4 -14 11 -25 16 -25 6 0
10 -11 10 -25 0 -14 5 -25 10 -25 6 0 10 -6 10 -14 0 -8 8 -29 17 -48 31 -61
33 -68 33 -88 0 -11 5 -20 10 -20 6 0 10 -11 10 -24 0 -14 7 -31 15 -40 8 -8
15 -28 15 -45 0 -17 5 -31 10 -31 6 0 10 -13 10 -29 0 -17 4 -32 9 -35 5 -4
12 -24 16 -46 4 -22 11 -42 16 -46 5 -3 9 -23 9 -45 0 -21 5 -39 10 -39 6 0
10 -17 10 -39 0 -21 7 -55 16 -76 8 -20 13 -40 10 -42 -5 -6 -67 16 -76 27
-12 14 -61 40 -75 40 -9 0 -14 3 -11 8 2 4 -13 16 -35 26 -21 11 -39 23 -39
28 0 4 -7 8 -15 8 -8 0 -15 5 -15 10 0 6 -6 10 -13 10 -7 0 -24 11 -39 25 -15
14 -32 25 -38 25 -6 0 -21 11 -34 25 -13 14 -31 25 -40 25 -10 0 -32 16 -50
35 -19 19 -39 35 -45 35 -6 0 -27 16 -45 35 -19 19 -37 35 -41 35 -6 0 -19 10
-50 38 -7 6 -18 12 -23 12 -5 0 -15 11 -22 25 -7 14 -17 25 -23 25 -5 0 -24
16 -43 35 -18 19 -36 35 -40 35 -3 0 -48 44 -100 98 -137 142 -164 171 -164
178 0 10 -28 34 -39 34 -6 0 -11 7 -11 15 0 8 -4 15 -9 15 -5 0 -12 8 -15 18
-3 9 -19 31 -36 49 -16 18 -30 36 -30 40 0 5 -11 20 -25 35 -14 15 -25 30 -25
33 0 6 -11 20 -37 50 -7 7 -13 20 -13 28 0 8 -11 26 -25 41 -14 15 -25 34 -25
42 0 7 -3 14 -7 14 -5 0 -21 29 -38 65 -16 35 -33 65 -37 65 -5 0 -8 8 -8 18
0 9 -7 26 -15 36 -8 11 -15 28 -15 38 0 10 -4 18 -10 18 -5 0 -10 11 -10 25 0
14 -4 25 -10 25 -5 0 -10 10 -10 23 -1 12 -7 33 -15 47 -8 14 -14 35 -15 48 0
12 -4 22 -10 22 -5 0 -10 15 -10 34 0 19 -4 38 -10 41 -26 16 11 75 47 75 8 0
12 3 9 8 -2 4 6 12 20 19 20 9 24 8 29 -8 4 -10 11 -19 16 -19 5 0 9 -7 9 -15
0 -8 5 -15 10 -15 6 0 10 -9 10 -20 0 -11 4 -20 10 -20 5 0 12 -11 16 -25 3
-14 10 -25 15 -25 5 0 9 -7 9 -15 0 -8 5 -15 10 -15 6 0 10 -7 10 -15 0 -9 11
-26 25 -39 14 -13 25 -31 25 -40 0 -9 4 -16 8 -16 5 0 17 -17 28 -37 10 -21
29 -48 42 -61 12 -12 22 -27 22 -32 0 -6 16 -27 35 -47 19 -20 35 -43 35 -50
0 -7 5 -13 10 -13 6 0 10 -5 10 -10 0 -6 11 -21 25 -34 14 -13 25 -29 25 -35
0 -6 7 -14 15 -17 8 -4 12 -10 9 -15 -3 -5 2 -9 10 -9 9 0 16 -5 16 -11 0 -6
20 -30 45 -55 25 -24 45 -47 45 -51 0 -11 108 -123 118 -123 5 0 32 -22 61
-50 29 -27 56 -50 62 -50 5 0 9 -6 9 -12 0 -7 5 -5 11 5 7 12 6 23 -5 39 -9
12 -16 33 -16 45 0 13 -4 23 -10 23 -5 0 -10 11 -10 24 0 14 -4 27 -9 31 -5 3
-12 19 -16 35 -4 17 -11 30 -16 30 -5 0 -9 11 -9 25 0 14 -4 25 -10 25 -5 0
-10 8 -10 18 0 10 -7 27 -15 38 -8 10 -15 27 -15 37 0 9 -4 17 -10 17 -5 0
-10 7 -10 15 0 8 -4 15 -10 15 -5 0 -10 9 -10 20 0 11 -7 23 -15 26 -8 4 -15
15 -15 25 0 10 -4 19 -10 19 -5 0 -10 11 -10 24 0 13 -7 26 -15 30 -8 3 -15
15 -15 26 0 11 -4 20 -10 20 -5 0 -10 5 -10 11 0 6 -6 17 -12 24 -23 26 -33
40 -48 70 -8 17 -23 39 -32 49 -10 11 -20 28 -24 38 -3 10 -10 18 -15 18 -5 0
-9 5 -9 11 0 6 -6 17 -12 24 -28 31 -38 44 -38 51 0 4 -11 17 -25 30 -14 13
-25 28 -25 34 0 6 -20 30 -45 54 -25 25 -45 49 -45 55 0 6 -7 11 -15 11 -22 0
-18 38 5 45 11 3 20 11 20 16 0 5 7 9 15 9 8 0 15 4 15 9 0 5 11 12 25 15 14
4 25 11 25 16 0 19 13 9 101 -80z"/>
<path d="M10516 11811 c-4 -5 -2 -12 3 -15 5 -4 12 -2 15 3 4 5 2 12 -3 15 -5
4 -12 2 -15 -3z"/>
<path d="M10970 11374 c0 -8 5 -12 10 -9 6 4 8 11 5 16 -9 14 -15 11 -15 -7z"/>
<path d="M7177 11199 c-66 -4 -124 -12 -130 -18 -6 -6 -26 -11 -44 -11 -18 0
-33 -4 -33 -10 0 -5 -10 -10 -23 -10 -13 0 -32 -7 -43 -15 -10 -8 -27 -15 -36
-15 -10 0 -18 -4 -18 -10 0 -5 -6 -10 -14 -10 -17 0 -106 -89 -106 -106 0 -8
-4 -14 -10 -14 -5 0 -10 -8 -10 -17 0 -10 -7 -27 -15 -37 -11 -15 -15 -49 -15
-136 0 -87 4 -121 15 -136 8 -10 15 -31 15 -46 0 -16 5 -28 10 -28 6 0 10 -9
10 -20 0 -11 11 -38 25 -60 14 -22 25 -46 25 -55 0 -8 3 -15 8 -15 4 0 16 -16
26 -35 11 -19 23 -35 28 -35 4 0 8 -5 8 -11 0 -6 6 -17 13 -24 33 -38 37 -47
37 -89 0 -25 -4 -48 -10 -51 -6 -3 -8 -91 -5 -228 4 -250 12 -367 26 -367 5 0
9 -17 9 -37 0 -21 7 -51 15 -67 8 -15 15 -41 15 -57 0 -16 5 -29 10 -29 6 0
10 -11 10 -24 0 -25 29 -88 43 -94 4 -2 7 -15 7 -28 0 -13 5 -24 10 -24 6 0
10 -7 10 -16 0 -18 31 -77 43 -82 11 -5 9 -42 -3 -42 -5 0 -10 5 -10 11 0 11
-24 39 -34 39 -8 0 -66 61 -66 70 0 4 -17 26 -37 48 -72 76 -83 90 -83 101 0
6 -4 11 -10 11 -5 0 -10 7 -10 15 0 8 -7 15 -15 15 -8 0 -15 7 -15 15 0 8 -4
15 -8 15 -5 0 -17 16 -28 35 -10 19 -22 35 -26 35 -5 0 -8 9 -8 20 0 11 -4 20
-10 20 -5 0 -10 5 -10 11 0 6 -6 17 -12 24 -32 35 -38 45 -38 60 0 9 -9 25
-19 37 -18 19 -21 19 -35 5 -9 -9 -16 -20 -16 -25 0 -6 -4 -12 -10 -14 -5 -1
-18 -27 -28 -55 -10 -29 -22 -50 -25 -46 -4 3 -7 -5 -7 -18 -1 -13 -7 -35 -15
-49 -8 -14 -14 -35 -15 -47 0 -13 -4 -23 -10 -23 -5 0 -10 -10 -10 -22 -1 -13
-7 -34 -15 -48 -8 -14 -14 -35 -15 -47 0 -13 -4 -23 -10 -23 -5 0 -10 -16 -10
-35 0 -19 -4 -35 -10 -35 -5 0 -10 -12 -10 -27 -1 -16 -7 -39 -15 -53 -8 -14
-14 -40 -15 -57 0 -18 -4 -33 -10 -33 -5 0 -10 -16 -10 -35 0 -19 5 -35 10
-35 6 0 10 8 10 19 0 10 7 24 15 31 8 7 15 19 15 26 0 8 5 14 10 14 6 0 10 7
10 15 0 8 4 15 9 15 5 0 12 8 15 18 3 9 17 30 31 46 14 16 25 32 25 37 0 4 33
42 74 84 l75 76 40 -40 c23 -23 41 -45 41 -51 0 -5 5 -10 11 -10 12 0 59 -50
59 -62 0 -5 5 -8 11 -8 11 0 39 -25 39 -35 0 -8 27 -35 34 -35 4 0 38 -31 76
-70 38 -39 74 -70 78 -70 5 0 32 -22 60 -50 28 -27 54 -50 57 -50 7 0 24 -14
60 -47 13 -13 27 -23 30 -23 3 0 18 -11 33 -25 15 -14 30 -25 34 -25 4 0 24
-16 44 -35 19 -19 40 -35 45 -35 6 0 20 -11 33 -25 13 -14 31 -25 40 -25 9 0
16 -4 16 -10 0 -5 7 -10 15 -10 8 0 15 -3 15 -8 0 -4 16 -16 35 -26 19 -11 35
-22 35 -26 0 -5 11 -11 25 -14 14 -4 25 -11 25 -16 0 -6 7 -10 15 -10 8 0 15
-4 15 -10 0 -5 9 -10 20 -10 11 0 20 -4 20 -10 0 -5 11 -12 25 -16 14 -3 25
-10 25 -15 0 -5 7 -9 15 -9 8 0 15 -4 15 -10 0 -5 9 -10 19 -10 10 0 21 -7 25
-15 3 -8 15 -15 26 -15 11 0 20 -4 20 -10 0 -5 7 -10 15 -10 9 0 33 -11 55
-25 22 -14 46 -25 55 -25 8 0 15 -4 15 -9 0 -5 11 -12 25 -15 14 -4 25 -11 25
-16 0 -6 11 -10 25 -10 14 0 25 -4 25 -10 0 -5 6 -10 14 -10 17 0 80 -32 84
-42 2 -5 15 -8 28 -8 13 0 24 -4 24 -10 0 -5 8 -10 18 -10 10 0 27 -7 38 -15
10 -8 29 -15 42 -15 12 0 22 -4 22 -10 0 -5 14 -10 30 -10 17 0 30 -4 30 -10
0 -5 16 -12 35 -16 19 -3 38 -10 41 -15 3 -5 18 -9 35 -9 16 0 29 -4 29 -10 0
-5 13 -10 29 -10 16 0 36 -7 45 -15 8 -8 28 -15 45 -15 17 0 31 -4 31 -10 0
-5 18 -10 40 -10 22 0 40 -4 40 -9 0 -5 25 -12 55 -16 30 -3 55 -11 55 -16 0
-5 23 -9 50 -9 28 0 50 -4 50 -10 0 -6 27 -10 60 -10 33 0 60 -4 60 -10 0 -5
15 -10 33 -11 17 0 41 -4 52 -9 18 -7 19 -8 3 -15 -10 -4 -18 -11 -18 -17 0
-12 -47 -58 -60 -58 -5 0 -10 -7 -10 -15 0 -8 -6 -15 -13 -15 -7 0 -19 -9 -27
-20 -8 -11 -20 -20 -27 -20 -7 0 -23 -11 -37 -25 -14 -14 -28 -25 -31 -25 -4
0 -13 -6 -20 -13 -33 -29 -45 -37 -55 -37 -5 0 -10 -4 -10 -10 0 -5 -9 -10
-20 -10 -11 0 -23 -7 -26 -15 -4 -8 -15 -15 -25 -15 -10 0 -19 -4 -19 -10 0
-5 -7 -10 -15 -10 -8 0 -15 -3 -15 -8 0 -4 -17 -16 -37 -27 -81 -41 -126 -85
-88 -85 9 0 33 -11 55 -25 22 -14 46 -25 55 -25 8 0 15 -4 15 -10 0 -5 9 -10
21 -10 11 0 27 -7 35 -15 9 -8 26 -15 40 -15 13 0 24 -4 24 -10 0 -5 11 -10
24 -10 14 0 28 -4 31 -10 3 -5 14 -10 23 -10 9 0 30 -7 46 -15 15 -8 39 -15
52 -15 13 0 24 -4 24 -10 0 -5 12 -10 28 -10 15 0 36 -7 46 -15 11 -8 35 -15
53 -15 18 0 33 -4 33 -10 0 -5 16 -10 35 -10 19 0 35 -4 35 -10 0 -5 15 -10
33 -10 18 0 42 -7 53 -15 10 -8 38 -15 62 -15 23 0 42 -4 42 -10 0 -5 18 -10
40 -10 22 0 40 -4 40 -9 0 -6 21 -13 48 -16 26 -3 55 -10 64 -16 10 -5 38 -9
63 -9 25 0 45 -4 45 -9 0 -4 28 -11 61 -14 34 -3 66 -10 72 -16 6 -6 35 -11
65 -11 33 0 51 -4 47 -10 -4 -6 13 -10 43 -10 27 0 62 -5 78 -10 37 -13 149
-30 237 -37 37 -2 67 -9 67 -14 0 -5 21 -9 48 -9 26 0 82 -7 125 -15 43 -8
105 -15 138 -15 33 0 59 -4 59 -10 0 -6 35 -10 84 -10 47 0 88 -5 91 -10 4 -6
12 -10 18 -9 7 2 57 -1 112 -5 141 -12 144 -12 152 -19 3 -4 55 -7 114 -7 59
0 109 -4 111 -9 2 -6 71 -12 153 -15 83 -3 203 -8 268 -12 114 -6 117 -5 117
15 0 12 -4 21 -10 21 -5 0 -10 5 -10 11 0 6 -6 17 -12 24 -30 33 -38 45 -38
55 0 5 -4 10 -8 10 -4 0 -16 14 -27 32 -10 18 -42 56 -72 86 -29 30 -53 58
-53 63 0 5 -5 9 -11 9 -6 0 -25 16 -43 35 -19 19 -41 35 -50 35 -9 0 -16 5
-16 10 0 6 -6 10 -14 10 -8 0 -21 6 -28 13 -25 22 -57 37 -82 37 -13 0 -26 5
-28 11 -5 14 -153 24 -214 14 -47 -8 -48 -9 -21 -19 15 -5 27 -13 27 -18 0 -4
20 -8 45 -8 25 0 45 -4 45 -10 0 -5 11 -12 25 -16 14 -3 25 -10 25 -15 0 -5 7
-9 15 -9 13 0 56 -40 90 -82 13 -17 35 -66 35 -79 0 -12 -630 -12 -645 1 -6 5
-65 12 -133 16 -67 4 -122 11 -122 15 0 5 -34 9 -75 9 -41 0 -75 4 -75 9 0 4
-35 11 -79 14 -43 3 -88 10 -99 16 -11 6 -41 11 -66 11 -25 0 -46 5 -46 10 0
6 -19 10 -42 10 -24 0 -61 7 -83 15 -22 8 -57 14 -77 15 -21 0 -38 5 -38 10 0
6 -20 10 -45 10 -25 0 -45 5 -45 10 0 6 -14 10 -30 10 -17 0 -47 7 -67 15 -19
8 -48 15 -64 15 -16 0 -29 4 -29 9 0 5 -17 11 -37 14 -21 3 -63 13 -93 22 -30
10 -71 20 -90 23 -19 2 -37 7 -40 11 -5 7 -77 29 -122 38 -16 3 -28 9 -28 14
0 5 -16 9 -35 9 -19 0 -35 4 -35 10 0 5 -16 12 -35 16 -19 3 -38 10 -41 15 -3
5 -18 9 -35 9 -16 0 -29 5 -29 10 0 6 -10 10 -23 10 -13 0 -32 7 -43 15 -10 8
-27 15 -36 15 -29 0 -21 15 17 33 19 9 35 21 35 27 0 5 11 10 25 10 14 0 25 3
25 8 0 4 16 16 35 26 19 11 35 23 35 28 0 4 9 8 20 8 11 0 20 5 20 10 0 6 7
10 15 10 8 0 15 4 15 9 0 5 10 13 22 17 12 3 33 17 47 30 14 13 31 24 38 24 7
0 13 4 13 8 0 5 16 17 35 28 19 10 35 22 35 26 0 5 5 8 10 8 6 0 23 11 38 25
15 14 31 25 37 25 6 0 17 9 25 20 8 11 18 20 23 20 9 0 24 12 79 63 22 20 47
37 54 37 8 0 14 5 14 10 0 6 7 10 15 10 8 0 15 7 15 15 0 8 4 15 10 15 5 0 27
16 47 35 20 19 41 35 45 35 10 0 68 58 68 67 0 3 -84 2 -187 -3 -228 -11 -503
-12 -503 -1 0 4 -54 7 -119 7 -69 0 -122 4 -126 10 -3 6 -21 10 -38 10 -52 0
-107 12 -101 21 3 5 36 9 74 9 38 0 72 5 75 10 3 6 22 10 41 10 19 0 51 7 71
15 19 8 48 15 64 15 16 0 29 5 29 10 0 6 8 10 18 10 19 0 107 32 118 43 4 4
18 7 31 7 13 0 23 5 23 10 0 6 11 10 25 10 14 0 25 4 25 10 0 5 11 12 25 16
14 3 25 10 25 15 0 5 6 9 14 9 18 0 76 32 76 43 0 4 7 7 15 7 8 0 15 5 15 10
0 6 9 10 19 10 10 0 21 7 25 15 4 12 29 15 136 15 73 0 130 4 130 9 0 5 35 12
78 14 92 6 181 22 196 37 5 5 23 10 38 10 15 0 28 5 28 10 0 6 9 10 20 10 19
0 29 6 65 38 7 6 21 12 29 12 9 0 16 5 16 10 0 6 7 10 15 10 8 0 15 7 15 15 0
8 5 15 11 15 16 0 38 31 39 53 0 9 4 17 9 17 4 0 16 20 25 45 14 35 16 66 13
147 -4 100 -24 198 -39 198 -5 0 -8 14 -8 30 0 17 -4 30 -9 30 -5 0 -12 11
-15 25 -4 14 -11 25 -16 25 -6 0 -10 11 -10 25 0 14 -4 25 -10 25 -5 0 -10 5
-10 11 0 6 -11 25 -25 43 -14 18 -25 38 -25 45 0 6 -11 24 -25 39 -14 15 -25
32 -25 39 0 7 -4 13 -8 13 -4 0 -16 15 -27 33 -10 17 -27 39 -37 48 -10 9 -18
21 -18 28 0 6 -7 11 -15 11 -8 0 -15 5 -15 10 0 6 -10 22 -22 35 -33 35 -48
53 -48 59 0 7 -320 326 -326 326 -6 0 -25 15 -59 48 -13 12 -29 22 -35 22 -5
0 -10 5 -10 11 0 11 -25 39 -35 39 -4 0 -13 6 -20 13 -31 27 -44 37 -50 37 -4
0 -21 16 -39 35 -19 19 -39 35 -46 35 -7 0 -27 16 -46 35 -18 19 -37 35 -42
35 -5 0 -18 8 -30 18 -11 9 -29 24 -40 33 -11 10 -29 20 -41 24 -12 3 -21 11
-21 16 0 5 -7 9 -15 9 -8 0 -15 5 -15 10 0 6 -9 10 -20 10 -11 0 -20 6 -20 13
0 7 -16 19 -35 27 -19 8 -35 17 -35 20 0 4 -16 15 -35 26 -19 10 -35 22 -35
26 0 5 -11 8 -25 8 -14 0 -25 3 -25 8 0 10 -58 42 -76 42 -8 0 -14 5 -14 10 0
6 -7 10 -15 10 -8 0 -15 4 -15 10 0 5 -11 12 -25 16 -14 3 -25 10 -25 15 0 5
-11 9 -25 9 -14 0 -25 4 -25 8 0 5 -20 17 -45 28 -25 10 -45 22 -45 26 0 4 -9
8 -21 8 -11 0 -27 7 -35 15 -9 8 -26 15 -40 15 -13 0 -24 5 -24 10 0 6 -11 10
-25 10 -14 0 -25 5 -25 10 0 6 -8 10 -17 10 -10 0 -27 7 -37 15 -11 8 -30 15
-43 15 -13 0 -23 5 -23 10 0 6 -8 10 -17 10 -10 0 -27 7 -37 15 -11 8 -30 15
-43 15 -13 0 -23 5 -23 10 0 6 -11 10 -25 10 -14 0 -25 5 -25 10 0 6 -12 10
-27 10 -16 0 -37 7 -47 15 -11 8 -30 15 -43 15 -13 0 -23 5 -23 10 0 6 -16 10
-35 10 -19 0 -35 4 -35 10 0 5 -17 12 -37 15 -21 3 -46 10 -55 16 -10 5 -31 9
-48 9 -16 0 -30 5 -30 10 0 6 -13 10 -28 10 -16 0 -51 7 -78 15 -27 8 -64 15
-81 15 -18 0 -33 4 -33 9 0 5 -28 11 -62 14 -35 3 -88 10 -118 15 -74 14 -230
18 -373 11z m597 -184 c34 -8 76 -15 94 -15 17 0 32 -4 32 -10 0 -5 23 -10 50
-10 28 0 50 -4 50 -10 0 -5 15 -10 34 -10 40 0 58 -19 27 -27 -12 -3 -21 -9
-21 -14 0 -5 -12 -9 -27 -9 -16 0 -37 -7 -47 -15 -11 -8 -30 -15 -43 -15 -13
0 -23 -4 -23 -8 0 -5 -10 -14 -22 -20 -18 -8 4 -11 102 -12 321 -3 480 -17
480 -42 0 -4 8 -8 18 -8 9 0 26 -7 36 -15 11 -8 28 -15 38 -15 10 0 18 -4 18
-10 0 -5 11 -10 25 -10 18 0 25 -5 25 -19 0 -16 -10 -21 -55 -26 -30 -4 -55
-11 -55 -16 0 -5 -10 -9 -21 -9 -12 0 -36 -16 -55 -35 -18 -19 -37 -35 -43
-35 -6 0 -11 -5 -11 -10 0 -6 -9 -20 -20 -32 -10 -11 -22 -34 -25 -49 -4 -16
-11 -29 -16 -29 -5 0 -9 -18 -9 -39 0 -22 -4 -43 -10 -46 -6 -4 -10 -57 -10
-125 0 -68 4 -121 10 -125 6 -3 10 -17 10 -31 0 -14 7 -36 16 -49 17 -26 11
-65 -11 -65 -7 0 -33 -11 -56 -25 -24 -14 -54 -25 -66 -25 -13 0 -23 -4 -23
-10 0 -5 -15 -10 -33 -10 -18 0 -38 -5 -45 -12 -7 -7 -52 -14 -113 -16 -84 -4
-106 -1 -135 14 -19 10 -34 22 -34 26 0 5 -5 8 -11 8 -14 0 -39 25 -39 39 0 6
-4 11 -10 11 -5 0 -10 8 -10 18 0 9 -7 26 -15 36 -21 28 -20 136 2 174 27 48
61 62 147 62 43 0 76 -4 76 -10 0 -5 11 -12 25 -16 14 -3 25 -10 25 -15 0 -5
9 -9 20 -9 11 0 20 5 20 10 0 6 -4 10 -10 10 -5 0 -10 5 -10 10 0 14 -46 60
-60 60 -5 0 -10 4 -10 10 0 5 -11 12 -25 16 -14 3 -25 10 -25 15 0 5 -8 9 -17
9 -10 0 -27 7 -37 15 -27 21 -149 20 -170 0 -8 -8 -24 -15 -35 -15 -12 0 -21
-4 -21 -10 0 -5 -6 -10 -13 -10 -7 0 -24 -11 -39 -25 -15 -14 -30 -25 -33 -25
-10 0 -35 -28 -35 -38 0 -6 -5 -12 -11 -14 -25 -8 -54 -238 -30 -238 6 0 11
-15 11 -34 0 -19 7 -41 15 -50 8 -8 15 -24 15 -35 0 -12 5 -21 10 -21 6 0 10
-6 10 -13 0 -7 11 -24 25 -39 14 -15 25 -30 25 -33 0 -10 27 -35 38 -35 5 0
15 -11 22 -25 7 -14 19 -25 27 -25 7 0 13 -4 13 -10 0 -5 9 -10 19 -10 10 0
21 -7 25 -15 3 -8 15 -15 26 -15 11 0 20 -4 20 -10 0 -5 11 -10 25 -10 14 0
25 -3 25 -8 0 -32 290 -54 368 -28 25 9 56 16 69 16 13 0 23 5 23 10 0 6 16
10 35 10 19 0 35 4 35 9 0 5 16 12 35 15 19 4 35 11 35 16 0 6 9 10 20 10 11
0 20 5 20 10 0 6 11 10 24 10 13 0 26 4 28 9 2 4 13 11 25 15 19 6 22 2 26
-46 7 -75 29 -168 39 -168 4 0 8 -16 8 -35 0 -19 5 -35 10 -35 6 0 10 -10 10
-22 0 -26 31 -98 42 -98 4 0 8 -11 8 -25 0 -14 5 -25 10 -25 6 0 10 -9 10 -20
0 -11 7 -23 15 -26 8 -4 15 -15 15 -25 0 -10 5 -19 10 -19 6 0 10 -4 10 -10 0
-13 126 -140 139 -140 6 0 11 -4 11 -10 0 -5 9 -10 20 -10 11 0 20 -4 20 -10
0 -5 11 -12 25 -16 14 -3 25 -10 25 -15 0 -5 15 -9 34 -9 19 0 36 -5 38 -11 5
-15 231 -15 236 0 2 6 15 11 28 11 13 0 24 5 24 10 0 6 7 10 15 10 8 0 25 11
39 25 14 14 28 25 31 25 9 0 35 27 35 36 0 4 11 17 25 30 14 13 25 30 25 39 0
8 5 15 10 15 6 0 10 15 10 34 0 19 5 36 11 38 7 2 11 35 11 87 0 47 -5 88 -11
94 -6 6 -11 19 -11 30 0 21 -72 97 -92 97 -7 0 -22 7 -32 15 -27 21 -193 20
-220 0 -11 -8 -30 -15 -44 -15 -13 0 -20 -4 -17 -10 3 -5 31 -10 61 -10 30 0
54 -4 54 -10 0 -5 11 -10 25 -10 16 0 25 -6 25 -15 0 -8 5 -15 11 -15 26 0 39
-30 39 -90 0 -54 -3 -65 -28 -89 -15 -15 -41 -31 -57 -36 -57 -15 -175 -4
-175 16 0 5 -5 9 -10 9 -12 0 -28 12 -68 51 -58 56 -92 108 -92 139 0 11 -4
20 -9 20 -5 0 -12 13 -16 30 -4 16 -11 32 -16 35 -5 4 -9 24 -9 46 0 21 -4 39
-10 39 -6 0 -10 30 -10 69 0 39 -4 72 -9 76 -6 3 -6 17 0 35 9 24 18 30 55 36
24 3 47 10 50 15 3 5 18 9 35 9 16 0 29 4 29 9 0 5 11 12 25 15 14 4 25 11 25
16 0 6 5 10 10 10 14 0 60 46 60 60 0 5 5 10 10 10 6 0 10 5 10 10 0 6 -9 10
-20 10 -11 0 -20 -4 -20 -10 0 -5 -11 -10 -25 -10 -14 0 -25 -4 -25 -10 0 -5
-16 -12 -35 -16 -19 -3 -35 -10 -35 -15 0 -5 -26 -9 -58 -9 -32 0 -63 -5 -70
-12 -9 -9 -12 -9 -12 0 0 8 -18 12 -50 12 -27 0 -50 4 -50 9 0 5 -14 12 -30
16 -34 7 -140 106 -140 130 0 8 -4 15 -10 15 -5 0 -10 7 -10 15 0 8 -4 15 -10
15 -5 0 -10 7 -10 16 0 8 -7 22 -15 30 -8 9 -15 29 -15 45 0 16 -4 29 -10 29
-6 0 -10 31 -10 74 0 41 5 78 10 81 6 3 10 13 10 22 0 22 86 103 110 103 11 0
20 4 20 9 0 18 245 37 256 19 3 -4 14 -8 25 -8 10 0 19 -4 19 -10 0 -5 7 -10
15 -10 8 0 15 -3 15 -7 0 -11 58 -43 76 -43 8 0 14 -4 14 -8 0 -5 16 -17 35
-28 19 -10 35 -22 35 -26 0 -5 7 -8 15 -8 8 0 15 -3 15 -8 0 -4 16 -16 35 -26
19 -11 35 -23 35 -28 0 -4 6 -8 13 -8 7 0 24 -11 39 -25 15 -14 32 -25 38 -25
5 0 10 -4 10 -10 0 -5 7 -10 15 -10 9 0 18 -7 21 -15 4 -8 12 -15 20 -15 8 0
14 -4 14 -8 0 -4 15 -16 33 -27 17 -10 39 -27 48 -37 9 -10 20 -18 23 -18 11
0 36 -27 36 -39 0 -6 4 -11 9 -11 5 0 13 -10 17 -22 4 -13 15 -30 24 -38 9 -8
20 -25 24 -37 4 -13 12 -23 17 -23 5 0 9 -7 9 -15 0 -8 5 -15 10 -15 6 0 10
-6 10 -13 0 -7 11 -24 25 -39 14 -15 25 -34 25 -43 0 -8 5 -15 10 -15 6 0 10
-5 10 -10 0 -10 8 -22 38 -55 6 -7 12 -18 12 -24 0 -6 5 -11 10 -11 6 0 10 11
10 24 0 14 -4 28 -10 31 -5 3 -10 26 -10 51 0 24 -4 44 -10 44 -5 0 -10 9 -10
20 0 11 2 20 5 20 6 0 255 -249 255 -256 0 -6 15 -24 48 -59 12 -13 22 -28 22
-33 0 -5 11 -15 25 -22 14 -7 25 -17 25 -22 0 -8 9 -20 38 -53 6 -7 12 -18 12
-24 0 -6 5 -11 10 -11 6 0 10 -6 10 -13 0 -7 11 -24 25 -39 14 -15 25 -32 25
-38 0 -5 5 -10 10 -10 6 0 10 -9 10 -19 0 -10 7 -21 15 -25 8 -3 15 -15 15
-26 0 -11 5 -20 10 -20 6 0 10 -9 10 -20 0 -11 4 -20 9 -20 5 0 12 -13 16 -30
4 -16 11 -32 16 -35 5 -4 9 -19 9 -36 0 -16 5 -29 10 -29 13 0 13 -194 1 -218
-5 -9 -12 -24 -15 -32 -9 -22 -28 -51 -52 -76 -25 -26 -99 -74 -115 -74 -6 0
-17 -7 -25 -15 -9 -8 -26 -15 -40 -15 -13 0 -24 -4 -24 -10 0 -5 -18 -10 -40
-10 -22 0 -40 -4 -40 -10 0 -5 -25 -10 -55 -10 -30 0 -55 5 -55 10 0 6 8 10
18 10 10 0 25 11 32 25 7 14 17 25 22 25 12 0 30 18 52 52 10 15 22 25 27 22
5 -3 9 2 9 10 0 8 12 28 28 44 48 51 62 72 61 90 0 13 -3 12 -11 -5 -6 -13
-16 -23 -23 -23 -7 0 -40 -27 -74 -60 -34 -33 -64 -60 -67 -60 -5 0 -20 -12
-49 -37 -7 -7 -16 -13 -20 -13 -6 0 -19 -10 -50 -37 -7 -7 -18 -13 -24 -13 -6
0 -11 -4 -11 -10 0 -5 -5 -10 -11 -10 -6 0 -17 -6 -24 -12 -36 -32 -46 -38
-65 -38 -11 0 -20 -4 -20 -10 0 -5 -9 -10 -19 -10 -10 0 -21 -7 -25 -15 -3 -8
-15 -15 -26 -15 -11 0 -20 -4 -20 -10 0 -5 -11 -10 -24 -10 -13 0 -26 -3 -28
-7 -5 -12 -76 -43 -98 -43 -11 0 -20 -4 -20 -9 0 -5 -12 -11 -27 -14 -65 -14
-123 -32 -123 -39 0 -5 -20 -8 -44 -8 -25 0 -48 -4 -51 -10 -3 -5 -21 -10 -38
-10 -18 0 -57 -7 -87 -15 -64 -17 -535 -22 -545 -6 -3 5 -41 13 -85 17 -44 3
-80 11 -80 15 0 5 -20 9 -45 9 -25 0 -53 4 -63 9 -28 13 -118 41 -136 41 -9 0
-16 5 -16 10 0 6 -16 10 -35 10 -19 0 -35 4 -35 10 0 5 -16 12 -35 16 -19 3
-35 10 -35 15 0 5 -11 9 -25 9 -14 0 -25 4 -25 9 0 5 -11 12 -25 15 -14 4 -25
11 -25 16 0 6 -11 10 -25 10 -14 0 -25 5 -25 10 0 6 -9 10 -20 10 -11 0 -20 4
-20 9 0 5 -11 12 -25 15 -14 4 -25 11 -25 16 0 6 -7 10 -15 10 -8 0 -15 5 -15
10 0 6 -6 10 -13 10 -7 0 -24 11 -39 25 -15 14 -32 25 -38 25 -6 0 -26 16 -44
35 -19 19 -37 35 -41 35 -8 0 -205 198 -205 206 0 5 -11 19 -37 49 -7 7 -13
18 -13 24 0 6 -4 11 -10 11 -5 0 -10 5 -10 11 0 6 -6 17 -12 24 -30 33 -38 45
-38 55 0 5 -4 10 -10 10 -5 0 -10 6 -10 14 0 18 -32 76 -42 76 -5 0 -8 10 -8
23 0 13 -7 32 -15 43 -8 10 -15 27 -15 37 0 9 -4 17 -10 17 -5 0 -10 11 -10
25 0 14 -4 25 -10 25 -5 0 -10 15 -10 34 0 19 -5 36 -11 38 -6 2 -13 25 -16
51 -3 26 -9 47 -13 47 -5 0 -10 21 -13 48 -3 26 -12 83 -20 127 -8 44 -12 85
-10 91 2 7 0 15 -6 19 -15 8 -15 451 -1 460 6 4 9 9 6 13 -2 4 3 48 11 97 8
50 17 120 20 158 2 37 9 67 14 67 5 0 9 20 9 45 0 25 -4 45 -10 45 -5 0 -10
-11 -10 -25 0 -14 -4 -25 -9 -25 -5 0 -12 -20 -15 -45 -4 -24 -11 -47 -17 -50
-5 -4 -9 -22 -9 -41 0 -19 -4 -34 -10 -34 -5 0 -10 -11 -10 -24 0 -13 -3 -37
-6 -54 -5 -23 -10 -28 -25 -25 -12 3 -19 14 -19 29 0 13 -4 24 -10 24 -5 0
-12 16 -16 35 -3 19 -10 38 -15 41 -5 3 -9 21 -9 40 0 19 -4 34 -10 34 -6 0
-10 38 -10 95 0 57 4 95 10 95 6 0 10 9 10 21 0 22 22 49 39 49 6 0 11 7 11
15 0 8 7 15 15 15 8 0 15 5 15 10 0 6 9 10 20 10 11 0 20 4 20 9 0 5 19 11 42
15 23 4 47 11 53 16 28 23 606 19 709 -5z"/>
<path d="M7052 10835 c0 -16 2 -22 5 -12 2 9 2 23 0 30 -3 6 -5 -1 -5 -18z"/>
<path d="M10180 8960 c0 -5 5 -10 10 -10 6 0 10 5 10 10 0 6 -4 10 -10 10 -5
0 -10 -4 -10 -10z"/>
<path d="M12055 9410 c-3 -5 -19 -10 -36 -10 -16 0 -29 -4 -29 -9 0 -5 -12
-11 -27 -14 -16 -3 -38 -15 -50 -26 -12 -12 -25 -21 -28 -21 -9 0 -85 -80 -85
-90 0 -5 -4 -10 -10 -10 -5 0 -10 -9 -10 -20 0 -11 -4 -20 -10 -20 -5 0 -10
-7 -10 -16 0 -9 -7 -31 -16 -49 -12 -26 -14 -59 -11 -156 2 -68 7 -134 11
-146 7 -19 5 -23 -13 -23 -11 0 -21 -4 -21 -10 0 -5 -11 -10 -25 -10 -14 0
-33 -4 -43 -9 -44 -24 -87 -41 -104 -41 -10 0 -18 -4 -18 -10 0 -5 -11 -10
-25 -10 -14 0 -25 -4 -25 -10 0 -5 -11 -12 -25 -16 -14 -3 -25 -10 -25 -15 0
-5 -11 -9 -25 -9 -14 0 -25 -4 -25 -10 0 -5 -8 -10 -18 -10 -10 0 -27 -7 -38
-15 -10 -8 -27 -15 -36 -15 -10 0 -18 -4 -18 -10 0 -5 -7 -10 -15 -10 -8 0
-15 -4 -15 -10 0 -5 -11 -12 -25 -16 -14 -3 -25 -10 -25 -15 0 -5 -9 -9 -20
-9 -11 0 -20 -4 -20 -9 0 -5 -11 -12 -25 -15 -14 -4 -25 -11 -25 -16 0 -6 -7
-10 -15 -10 -8 0 -15 -4 -15 -10 0 -5 -6 -10 -13 -10 -7 0 -24 -11 -39 -25
-15 -14 -34 -25 -43 -25 -8 0 -15 -4 -15 -10 0 -5 -7 -10 -15 -10 -8 0 -15 -7
-15 -15 0 -8 -9 -15 -20 -15 -11 0 -20 -4 -20 -10 0 -5 -5 -10 -10 -10 -6 0
-21 -11 -34 -25 -13 -14 -28 -25 -35 -25 -6 0 -27 -16 -45 -35 -19 -19 -37
-35 -41 -35 -6 0 -19 -10 -50 -37 -7 -7 -16 -13 -19 -13 -3 0 -28 -22 -56 -50
-28 -27 -55 -50 -61 -50 -5 0 -34 -25 -64 -55 -29 -30 -56 -55 -60 -55 -4 0
-20 -12 -35 -27 -47 -45 -58 -53 -74 -53 -8 0 -18 -4 -21 -10 -3 -5 -19 -10
-36 -10 -16 0 -29 -3 -29 -8 0 -8 -59 -30 -102 -39 -16 -3 -28 -9 -28 -14 0
-5 -14 -9 -31 -9 -17 0 -37 -7 -45 -15 -9 -8 -26 -15 -40 -15 -13 0 -24 -4
-24 -10 0 -5 -11 -10 -25 -10 -14 0 -25 -4 -25 -10 0 -5 -10 -10 -23 -10 -13
0 -32 -7 -43 -15 -10 -8 -27 -15 -36 -15 -10 0 -18 -4 -18 -10 0 -5 -11 -10
-25 -10 -14 0 -25 -4 -25 -10 0 -5 -11 -12 -25 -16 -14 -3 -25 -10 -25 -15 0
-5 -9 -9 -20 -9 -11 0 -20 -4 -20 -9 0 -5 -11 -12 -25 -15 -14 -4 -25 -11 -25
-16 0 -6 11 -10 25 -10 14 0 25 -4 25 -10 0 -5 16 -10 35 -10 19 0 35 -4 35
-8 0 -10 93 -32 168 -39 28 -3 52 -9 52 -14 0 -5 20 -9 45 -9 24 0 70 -7 101
-15 31 -8 90 -15 130 -16 41 -1 74 -5 74 -10 0 -5 45 -9 100 -9 55 0 100 -4
100 -9 0 -5 57 -10 126 -10 70 -1 130 -3 134 -6 12 -7 641 -7 915 1 138 4 256
11 263 17 8 6 12 6 12 -1 0 -5 11 -13 25 -16 14 -4 25 -11 25 -16 0 -6 5 -10
11 -10 6 0 17 -6 24 -12 33 -30 45 -38 55 -38 5 0 10 -4 10 -10 0 -5 7 -10 15
-10 9 0 26 -9 38 -20 12 -12 32 -23 44 -26 13 -4 23 -10 23 -15 0 -5 5 -9 11
-9 6 0 22 -9 36 -20 14 -11 29 -17 34 -14 5 3 9 0 9 -5 0 -6 7 -11 15 -11 8 0
15 -4 15 -10 0 -5 8 -10 18 -10 10 0 27 -7 38 -15 10 -8 27 -15 37 -15 9 0 17
-4 17 -10 0 -5 11 -10 24 -10 13 0 37 -7 52 -15 16 -8 39 -15 52 -15 12 0 22
-4 22 -10 0 -5 23 -10 50 -10 28 0 50 -4 50 -10 0 -6 37 -10 90 -10 53 0 90 4
90 10 0 6 19 10 42 10 44 0 94 13 141 36 16 8 35 14 43 14 8 0 14 5 14 10 0 6
11 10 25 10 14 0 25 4 25 10 0 5 11 12 25 16 14 3 25 10 25 15 0 5 7 9 15 9 9
0 33 11 55 25 22 14 44 25 50 25 5 0 10 5 10 10 0 6 9 10 20 10 11 0 20 4 20
10 0 5 11 12 25 16 14 3 25 10 25 15 0 5 9 9 20 9 11 0 20 5 20 10 0 6 6 10
14 10 8 0 21 6 28 13 19 17 56 37 69 37 6 0 17 7 25 15 9 8 24 15 35 15 10 0
19 5 19 10 0 6 11 10 25 10 14 0 25 5 25 10 0 6 11 10 25 10 14 0 25 4 25 10
0 5 11 12 25 16 14 3 25 10 25 15 0 5 7 9 16 9 22 0 118 33 122 43 2 4 19 7
38 7 19 0 34 5 34 10 0 6 9 10 21 10 11 0 49 7 83 17 36 9 74 13 89 9 30 -7
27 -26 -4 -26 -10 0 -19 -4 -19 -10 0 -5 -11 -10 -25 -10 -14 0 -25 -4 -25
-10 0 -5 -11 -12 -25 -16 -14 -3 -25 -10 -25 -15 0 -5 -9 -9 -20 -9 -11 0 -20
-4 -20 -9 0 -5 -11 -12 -25 -15 -14 -4 -25 -11 -25 -16 0 -6 -9 -10 -20 -10
-11 0 -20 -4 -20 -10 0 -5 -7 -10 -15 -10 -8 0 -15 -4 -15 -9 0 -5 -11 -12
-25 -15 -14 -4 -25 -11 -25 -16 0 -6 -7 -10 -15 -10 -8 0 -15 -4 -15 -10 0 -5
-9 -10 -20 -10 -11 0 -20 -7 -20 -15 0 -8 -7 -15 -15 -15 -8 0 -15 -4 -15 -10
0 -5 -7 -10 -16 -10 -9 0 -31 -16 -50 -35 -18 -19 -37 -35 -43 -35 -5 0 -21
-11 -35 -25 -14 -14 -28 -25 -32 -25 -4 0 -14 -8 -23 -18 -9 -10 -31 -27 -48
-37 -18 -11 -33 -25 -33 -32 0 -7 -5 -13 -10 -13 -10 0 -400 -386 -400 -396 0
-3 -10 -16 -22 -29 -34 -36 -48 -53 -48 -60 0 -4 -16 -21 -35 -39 -19 -19 -35
-41 -35 -50 0 -9 -6 -16 -14 -16 -8 0 -16 -4 -18 -10 -2 -6 -18 -6 -43 0 -22
5 -77 10 -122 11 -46 0 -86 5 -89 10 -7 12 -504 12 -504 0 0 -6 -56 -10 -127
-11 -71 0 -168 -5 -218 -11 -49 -6 -135 -15 -190 -20 -55 -4 -124 -11 -152
-15 l-53 -6 0 36 c0 20 5 36 10 36 6 0 10 20 10 45 0 25 5 45 10 45 6 0 10 11
10 25 0 14 -5 25 -11 25 -5 0 -8 -4 -4 -9 3 -5 -2 -16 -10 -24 -8 -9 -15 -20
-15 -26 0 -6 -4 -11 -10 -11 -5 0 -12 -11 -16 -25 -3 -14 -10 -25 -15 -25 -5
0 -9 -9 -9 -20 0 -11 -4 -20 -8 -20 -5 0 -17 -18 -28 -40 -10 -22 -22 -40 -26
-40 -5 0 -8 -11 -8 -24 0 -13 -7 -29 -15 -36 -8 -7 -15 -23 -15 -36 0 -13 -4
-24 -10 -24 -5 0 -10 -13 -10 -30 0 -16 -4 -30 -10 -30 -5 0 -13 -18 -16 -40
-4 -22 -10 -40 -15 -40 -5 0 -9 -16 -9 -35 0 -19 -4 -35 -10 -35 -5 0 -10 -12
-10 -27 0 -16 -7 -50 -15 -77 -8 -27 -15 -64 -15 -83 0 -18 -4 -33 -10 -33 -6
0 -10 -30 -10 -69 0 -42 -4 -71 -11 -73 -16 -5 -16 -625 0 -641 6 -6 11 -45
11 -89 0 -45 4 -78 10 -78 6 0 10 -16 10 -35 l0 -36 -105 2 c-58 1 -105 5
-105 10 0 5 -38 9 -85 9 -50 0 -85 4 -85 10 0 6 -28 10 -62 10 -35 0 -85 7
-112 15 -27 8 -71 15 -97 15 -26 0 -51 5 -54 10 -3 6 -33 10 -66 10 -32 0 -59
4 -59 10 0 5 -27 12 -60 16 -33 4 -63 11 -66 15 -3 5 -25 9 -50 9 -24 0 -44 4
-44 8 0 4 -19 9 -42 11 -22 1 -57 9 -76 16 -19 8 -47 15 -63 15 -16 0 -29 5
-29 10 0 6 -18 10 -40 10 -22 0 -40 4 -40 9 0 5 -22 12 -50 16 -27 4 -52 11
-56 16 -3 5 -21 9 -40 9 -19 0 -34 4 -34 9 0 5 -15 11 -32 14 -33 5 -88 22
-120 38 -10 5 -29 9 -42 9 -13 0 -37 7 -52 15 -16 8 -37 15 -46 15 -9 0 -20 5
-23 10 -3 6 -22 10 -41 10 -19 0 -34 5 -34 10 0 6 -9 10 -21 10 -11 0 -35 7
-52 16 -60 32 -67 34 -92 34 -14 0 -25 5 -25 10 0 6 -10 10 -22 10 -13 1 -34
7 -48 15 -14 8 -35 14 -47 15 -13 0 -23 5 -23 10 0 6 -11 10 -25 10 -14 0 -25
4 -25 10 0 5 -16 12 -35 16 -19 3 -35 10 -35 15 0 5 -11 9 -25 9 -14 0 -25 5
-25 10 0 6 -10 10 -23 10 -13 0 -32 7 -43 15 -10 8 -27 15 -36 15 -10 0 -18 5
-18 10 0 6 -9 10 -20 10 -22 0 -93 31 -98 43 -2 4 -15 7 -28 7 -13 0 -24 5
-24 10 0 6 -9 10 -21 10 -11 0 -27 7 -35 15 -9 8 -26 15 -40 15 -13 0 -24 5
-24 10 0 6 -7 10 -15 10 -9 0 -33 11 -55 25 -22 14 -46 25 -54 25 -8 0 -18 5
-21 10 -3 6 -15 10 -26 10 -10 0 -19 4 -19 10 0 5 -11 12 -25 16 -14 3 -25 10
-25 15 0 5 -11 9 -25 9 -14 0 -25 4 -25 10 0 5 -11 12 -25 16 -14 3 -25 10
-25 15 0 5 -9 9 -20 9 -19 0 -20 -7 -20 -155 0 -97 4 -155 10 -155 6 0 10 -22
10 -50 0 -27 4 -50 10 -50 5 0 12 -22 16 -50 4 -27 10 -50 15 -50 5 0 9 -13 9
-30 0 -16 5 -30 10 -30 6 0 10 -11 10 -24 0 -13 7 -29 15 -36 8 -7 15 -23 15
-36 0 -13 5 -24 10 -24 6 0 10 -7 10 -15 0 -8 4 -15 10 -15 5 0 12 -11 16 -25
3 -14 10 -25 15 -25 5 0 9 -6 9 -14 0 -8 16 -31 35 -50 19 -20 35 -41 35 -46
0 -6 4 -10 9 -10 5 0 13 -9 16 -20 10 -32 25 -23 25 15 0 19 -4 35 -9 35 -5 0
-12 20 -15 45 -4 25 -11 45 -17 45 -5 0 -9 18 -9 40 0 22 -4 40 -9 40 -5 0
-11 21 -14 48 -5 45 -16 96 -39 170 -5 19 -7 36 -5 39 7 6 67 -29 67 -39 0 -4
7 -8 15 -8 8 0 15 -4 15 -10 0 -5 9 -10 20 -10 11 0 20 -7 20 -15 0 -8 7 -15
15 -15 20 0 19 37 -1 57 -17 18 -16 84 2 90 7 2 19 -3 27 -12 9 -8 25 -15 36
-15 12 0 21 -4 21 -10 0 -5 11 -10 24 -10 13 0 37 -7 52 -15 16 -8 37 -15 47
-15 9 0 17 -4 17 -10 0 -5 9 -10 21 -10 11 0 27 -7 36 -16 13 -12 13 -20 4
-40 -6 -14 -11 -45 -11 -69 0 -25 -4 -45 -10 -45 -5 0 -10 -17 -10 -38 0 -21
-7 -64 -15 -95 -8 -32 -15 -80 -15 -107 0 -27 -4 -52 -10 -55 -5 -3 -10 -44
-10 -90 0 -46 -4 -87 -10 -90 -5 -3 -9 -16 -9 -28 0 -16 -6 -212 -11 -319 0
-15 -20 -8 -20 7 0 9 -16 31 -35 49 -19 19 -35 37 -35 41 0 10 -28 35 -39 35
-6 0 -11 9 -11 20 0 11 -4 20 -10 20 -5 0 -10 7 -10 15 0 8 -7 15 -15 15 -8 0
-15 5 -15 10 0 6 -10 22 -23 35 -34 37 -47 54 -47 61 0 4 -11 17 -25 30 -14
13 -25 29 -25 36 0 8 -9 20 -20 28 -11 8 -20 20 -20 27 0 7 -6 13 -13 13 -7 0
-19 16 -27 35 -8 19 -20 35 -27 35 -7 0 -13 7 -13 15 0 8 -4 15 -10 15 -5 0
-10 7 -10 15 0 8 -4 15 -10 15 -5 0 -10 6 -10 14 0 7 -11 22 -25 32 -14 10
-25 27 -25 37 0 10 -7 20 -15 23 -8 4 -15 12 -15 20 0 8 -4 14 -10 14 -5 0
-10 7 -10 16 0 9 -11 27 -25 40 -14 13 -25 30 -25 39 0 8 -4 15 -10 15 -5 0
-10 7 -10 15 0 8 -3 15 -7 15 -9 0 -43 57 -43 71 0 6 -9 20 -20 32 -12 12 -23
32 -26 44 -4 13 -10 23 -15 23 -5 0 -9 9 -9 20 0 11 -4 20 -8 20 -4 0 -16 23
-27 50 -11 28 -22 50 -25 50 -3 0 -7 14 -8 31 -1 17 -9 41 -17 52 -15 22 -22
187 -8 200 8 9 11 31 19 147 3 52 10 96 15 98 5 2 4 12 -1 23 -7 13 -7 19 0
19 6 0 10 30 10 75 0 41 4 75 9 75 5 0 12 41 16 91 4 51 11 102 17 115 6 13 7
35 3 51 -7 25 -9 26 -15 8 -16 -46 -35 -85 -42 -85 -4 0 -8 -8 -8 -19 0 -10
-7 -24 -15 -31 -8 -7 -15 -23 -15 -36 0 -13 -4 -24 -10 -24 -5 0 -10 -11 -10
-24 0 -13 -3 -26 -7 -28 -12 -5 -43 -76 -43 -98 0 -11 -4 -20 -10 -20 -5 0
-10 -10 -10 -22 -1 -13 -7 -34 -15 -48 -8 -14 -14 -37 -15 -52 0 -16 -4 -28
-10 -28 -5 0 -10 -20 -10 -45 0 -25 -4 -45 -9 -45 -7 0 -24 -100 -23 -142 1
-10 -3 -20 -9 -23 -14 -9 -10 -117 6 -145 8 -14 14 -35 15 -47 0 -13 5 -23 10
-23 6 0 10 -15 10 -34 0 -19 3 -36 8 -38 10 -4 42 -67 42 -84 0 -8 5 -14 10
-14 6 0 10 -11 10 -25 0 -14 4 -25 10 -25 5 0 12 -11 16 -25 3 -14 10 -25 15
-25 5 0 9 -9 9 -19 0 -11 5 -23 10 -26 6 -3 10 -14 10 -25 0 -10 7 -20 15 -24
8 -3 15 -15 15 -26 0 -11 5 -20 10 -20 6 0 10 -9 10 -19 0 -10 7 -21 15 -25 8
-3 15 -15 15 -26 0 -11 5 -20 10 -20 6 0 10 -7 10 -15 0 -8 3 -15 8 -15 7 0
25 -30 38 -62 3 -10 10 -18 15 -18 5 0 9 -7 9 -16 0 -8 6 -22 13 -29 29 -33
37 -45 37 -55 0 -5 5 -10 10 -10 6 0 10 -6 10 -13 0 -7 11 -24 25 -39 14 -15
25 -35 25 -45 0 -10 11 -27 25 -37 14 -10 25 -26 25 -34 0 -8 11 -25 25 -38
14 -13 25 -30 25 -39 0 -8 5 -15 10 -15 6 0 10 -5 10 -10 0 -6 11 -22 25 -36
14 -14 25 -30 25 -35 0 -6 16 -26 35 -45 19 -18 35 -40 35 -49 0 -8 5 -15 10
-15 6 0 10 -7 10 -15 0 -8 7 -15 15 -15 8 0 15 -7 15 -15 0 -8 5 -15 10 -15 6
0 10 -9 10 -20 0 -11 6 -20 13 -20 8 0 20 -11 27 -25 7 -14 17 -25 22 -25 4 0
8 -6 8 -12 0 -7 16 -31 35 -53 19 -22 35 -43 35 -47 0 -4 11 -18 25 -32 14
-14 25 -30 25 -36 0 -5 7 -10 15 -10 8 0 15 -5 15 -10 0 -6 10 -22 23 -35 33
-36 47 -53 47 -60 0 -4 16 -21 35 -39 19 -19 35 -38 35 -43 0 -5 16 -26 35
-46 19 -20 35 -42 35 -47 0 -6 5 -10 11 -10 14 0 39 -25 39 -39 0 -6 4 -11 8
-11 5 0 14 -10 19 -22 11 -23 11 -23 18 5 4 15 2 39 -4 55 -13 33 -32 208 -38
349 -2 57 -8 103 -13 103 -7 0 -10 60 -14 319 -1 35 3 56 12 58 6 3 12 -2 12
-11 0 -9 5 -16 11 -16 5 0 8 -4 4 -10 -3 -5 3 -18 15 -30 11 -11 20 -27 20
-35 0 -8 5 -15 10 -15 6 0 10 -5 10 -11 0 -6 6 -17 13 -24 25 -29 33 -41 50
-78 10 -20 22 -37 27 -37 6 0 10 -7 10 -15 0 -8 5 -15 10 -15 6 0 10 -6 10
-14 0 -7 11 -22 25 -32 14 -10 25 -27 25 -36 0 -10 5 -18 10 -18 6 0 10 -5 10
-10 0 -6 11 -21 25 -34 14 -13 25 -26 25 -30 0 -7 13 -24 48 -61 12 -13 22
-27 22 -30 0 -4 6 -13 12 -20 25 -28 38 -44 38 -48 0 -3 23 -28 50 -56 28 -28
50 -56 50 -62 0 -6 32 -41 70 -80 39 -38 70 -72 70 -74 0 -8 15 -25 108 -121
45 -47 82 -88 82 -90 0 -10 28 -34 39 -34 6 0 11 -5 11 -11 0 -14 25 -39 39
-39 6 0 11 -4 11 -10 0 -13 236 -250 249 -250 6 0 11 -5 11 -11 0 -14 25 -39
39 -39 6 0 11 -7 11 -16 0 -8 5 -12 10 -9 6 3 10 0 10 -8 0 -7 11 -20 25 -27
14 -7 25 -19 25 -27 0 -7 5 -13 10 -13 14 0 60 -46 60 -60 0 -5 5 -10 11 -10
6 0 26 -16 45 -35 18 -19 41 -35 49 -35 9 0 14 -4 11 -9 -3 -4 9 -19 26 -32
17 -13 60 -52 95 -86 35 -35 66 -63 69 -63 5 0 24 -15 58 -46 15 -14 42 -23
82 -28 32 -4 68 -8 79 -9 11 -1 25 -5 30 -8 6 -3 50 -7 100 -8 49 -2 97 -7
107 -12 9 -5 57 -9 107 -9 50 0 91 -4 91 -9 0 -5 39 -9 86 -10 56 -1 83 2 79
9 -3 5 -15 10 -26 10 -10 0 -19 4 -19 9 0 5 -11 12 -25 15 -14 4 -25 11 -25
16 0 6 -9 10 -20 10 -11 0 -20 4 -20 9 0 5 -10 11 -23 15 -12 3 -32 14 -44 26
-12 11 -29 20 -38 20 -9 0 -28 11 -43 25 -15 14 -32 25 -39 25 -7 0 -13 5 -13
10 0 6 -9 10 -20 10 -11 0 -20 4 -20 9 0 5 -8 11 -17 15 -21 7 -50 25 -77 48
-11 10 -28 20 -38 24 -10 3 -18 10 -18 15 0 5 -7 9 -15 9 -8 0 -15 3 -15 8 0
4 -16 16 -35 26 -19 11 -35 23 -35 28 0 4 -7 8 -15 8 -9 0 -26 11 -39 25 -13
14 -29 25 -36 25 -7 0 -23 11 -36 25 -13 14 -28 25 -34 25 -5 0 -10 5 -10 10
0 6 -7 10 -15 10 -9 0 -18 7 -21 15 -4 8 -11 15 -18 15 -6 0 -18 9 -26 20 -8
11 -19 20 -25 20 -5 0 -24 13 -41 28 -17 15 -43 36 -59 47 -15 11 -33 26 -40
33 -8 6 -18 12 -24 12 -6 0 -11 7 -11 15 0 8 -4 15 -10 15 -5 0 -27 16 -47 35
-20 19 -41 35 -45 35 -5 0 -40 31 -78 70 -38 38 -72 70 -75 70 -11 0 -36 24
-273 262 -255 255 -262 262 -262 278 0 5 -7 10 -15 10 -8 0 -15 4 -15 9 0 5
-25 34 -55 65 -30 30 -55 60 -55 66 0 5 -5 10 -10 10 -6 0 -14 8 -17 17 -4 10
-21 32 -40 50 -18 17 -33 34 -33 38 0 3 -10 17 -22 30 -34 36 -48 53 -48 60 0
3 -16 21 -35 39 -19 19 -35 38 -35 43 0 4 -11 20 -25 35 -14 15 -25 30 -25 33
0 4 -6 12 -12 20 -7 7 -22 25 -33 40 -11 16 -32 42 -47 59 -15 17 -28 35 -28
40 0 5 -11 19 -25 32 -14 13 -25 30 -25 39 0 8 -4 15 -10 15 -5 0 -10 5 -10
11 0 6 -6 17 -12 24 -30 33 -38 45 -38 54 0 5 -6 11 -12 14 -16 5 -12 300 3
305 5 2 9 27 9 55 0 72 18 117 47 117 13 0 23 -4 23 -10 0 -5 8 -10 18 -10 9
0 30 -7 46 -15 15 -8 39 -15 52 -15 13 0 24 -4 24 -10 0 -5 10 -10 23 -10 12
0 31 -7 41 -15 11 -8 30 -15 43 -15 13 0 23 -4 23 -10 0 -5 11 -10 24 -10 13
0 37 -7 52 -15 16 -8 37 -15 47 -15 9 0 17 -4 17 -10 0 -5 13 -10 29 -10 17 0
33 -4 36 -10 3 -5 16 -10 29 -10 12 0 31 -7 42 -15 10 -8 27 -15 37 -15 9 0
17 -4 17 -10 0 -5 16 -10 35 -10 19 0 35 -4 35 -10 0 -5 10 -10 23 -10 12 0
35 -7 51 -15 15 -8 39 -15 52 -15 13 0 24 -4 24 -10 0 -5 12 -10 28 -10 15 0
36 -7 46 -15 11 -8 30 -15 43 -15 13 0 23 -4 23 -10 0 -5 16 -10 35 -10 19 0
35 -4 35 -10 0 -5 10 -10 23 -10 12 0 35 -7 51 -15 15 -8 39 -15 52 -15 13 0
24 -4 24 -10 0 -5 15 -10 33 -10 17 -1 43 -7 57 -15 14 -8 35 -14 48 -15 12 0
22 -4 22 -10 0 -5 16 -10 35 -10 19 0 35 -4 35 -10 0 -5 12 -10 28 -10 15 -1
38 -7 52 -15 14 -8 40 -14 58 -15 17 0 32 -4 32 -9 0 -5 17 -11 38 -14 57 -9
132 -31 132 -39 0 -5 20 -8 45 -8 25 0 45 -4 45 -9 0 -4 21 -11 46 -14 26 -2
49 -9 53 -14 3 -5 24 -10 46 -12 22 -1 41 -7 43 -12 2 -5 26 -9 52 -9 27 0 51
-4 55 -9 3 -5 34 -13 70 -16 36 -4 65 -11 65 -16 0 -5 29 -9 65 -9 37 0 65 -4
65 -10 0 -6 62 -10 165 -10 103 0 165 4 165 10 0 6 11 10 24 10 33 0 166 111
166 139 0 6 3 11 8 11 10 0 42 58 42 76 0 8 5 14 10 14 6 0 10 11 10 25 0 14
4 25 10 25 5 0 12 16 16 35 3 19 10 35 15 35 5 0 9 16 9 35 0 19 4 35 9 35 4
0 11 23 14 51 4 28 11 56 16 63 5 6 12 36 15 66 4 30 11 91 16 135 23 196 28
270 29 420 0 88 -2 185 -6 215 l-7 55 -7 -40 c-5 -22 -8 -66 -8 -97 -1 -32 -5
-58 -11 -58 -5 0 -10 -24 -10 -54 0 -30 -4 -57 -9 -61 -6 -3 -13 -26 -17 -50
-3 -25 -10 -45 -15 -45 -5 0 -9 -18 -9 -40 0 -22 -4 -40 -10 -40 -5 0 -10 -12
-10 -27 0 -16 -7 -37 -15 -47 -8 -11 -15 -30 -15 -43 0 -13 -4 -23 -10 -23 -5
0 -10 -9 -10 -19 0 -11 -11 -41 -25 -67 -14 -26 -25 -53 -25 -60 0 -7 -3 -14
-7 -16 -11 -4 -43 -67 -43 -84 0 -8 -4 -14 -10 -14 -5 0 -10 -5 -10 -11 0 -6
-6 -17 -12 -24 -30 -33 -38 -45 -38 -55 0 -5 -4 -10 -10 -10 -5 0 -10 7 -10
15 0 8 -4 15 -10 15 -5 0 -12 11 -16 25 -3 14 -10 25 -15 25 -5 0 -9 11 -9 25
0 14 -4 25 -8 25 -11 0 -42 72 -42 98 0 11 -3 22 -7 24 -12 5 -43 102 -43 132
0 14 -4 26 -10 26 -5 0 -10 25 -10 56 0 30 -4 63 -9 72 -13 25 -21 133 -22
311 0 167 5 245 22 351 11 64 12 66 53 83 23 9 58 17 79 17 20 0 37 5 37 10 0
6 22 10 49 10 28 0 52 4 55 9 6 9 184 27 219 22 9 -1 17 3 17 8 0 14 716 15
724 2 3 -5 41 -10 83 -10 43 -1 110 -7 148 -12 39 -6 107 -13 152 -16 82 -4
82 -4 89 21 3 14 10 26 15 26 5 0 9 6 9 14 0 18 32 76 43 76 4 0 7 7 7 15 0 8
5 15 10 15 6 0 10 9 10 20 0 11 7 23 15 26 8 4 15 15 15 25 0 10 5 19 10 19 6
0 10 5 10 11 0 6 6 17 13 24 27 31 37 44 37 51 0 4 11 17 25 30 14 13 25 27
25 32 0 5 20 30 45 55 25 26 45 49 45 52 0 5 38 46 115 125 18 19 57 57 87 84
l53 49 230 -6 c126 -3 244 -8 260 -12 17 -3 68 -8 115 -11 47 -4 87 -10 88
-15 2 -5 25 -9 51 -9 26 0 51 -4 57 -9 5 -5 24 -12 42 -16 36 -7 36 -6 33 75
-2 45 -24 102 -49 129 -7 7 -20 24 -29 37 -8 13 -22 24 -29 24 -8 0 -14 4 -14
8 0 5 -16 17 -35 28 -19 10 -35 22 -35 26 0 5 -11 8 -25 8 -14 0 -25 5 -25 10
0 6 -11 10 -25 10 -30 0 -31 -4 -5 -33 49 -52 67 -127 30 -127 -11 0 -20 5
-20 10 0 6 -77 10 -210 10 -133 0 -210 4 -210 10 0 6 6 10 14 10 8 0 16 7 20
15 3 8 11 15 18 15 7 0 26 11 42 25 16 14 35 25 43 25 7 0 13 5 13 10 0 6 7
10 15 10 8 0 15 5 15 10 0 6 8 10 19 10 10 0 24 7 31 15 7 8 19 15 26 15 8 0
14 5 14 10 0 6 6 10 14 10 17 0 80 32 84 43 2 4 15 7 28 7 13 0 24 5 24 10 0
6 8 10 18 10 10 0 27 7 38 15 10 8 27 15 37 15 9 0 17 5 17 10 0 6 11 10 23
10 22 0 62 15 109 41 10 5 31 9 48 9 16 0 30 5 30 10 0 6 15 10 34 10 47 0 66
9 66 31 0 10 -4 19 -8 19 -5 0 -15 11 -22 25 -7 14 -17 25 -22 25 -5 0 -20 11
-34 25 -14 14 -36 25 -49 25 -14 0 -25 5 -25 10 0 6 -22 10 -48 10 -27 0 -51
3 -55 6 -3 4 -33 6 -67 6 -34 0 -64 -2 -67 -6 -4 -3 -39 -6 -80 -6 -42 0 -73
-4 -73 -10 0 -5 -18 -10 -40 -10 -22 0 -57 -7 -77 -15 -19 -8 -48 -15 -64 -15
-16 0 -29 -4 -29 -10 0 -5 -15 -10 -34 -10 -19 0 -38 -4 -41 -10 -3 -5 -14
-10 -23 -10 -9 0 -30 -7 -46 -15 -15 -8 -39 -15 -52 -15 -13 0 -24 -4 -24 -10
0 -5 -12 -10 -27 -10 -16 0 -37 -7 -47 -15 -11 -8 -30 -15 -43 -15 -13 0 -23
-4 -23 -10 0 -5 -10 -10 -22 -10 -13 0 -45 -12 -73 -25 -27 -14 -60 -25 -72
-25 -13 0 -23 -4 -23 -10 0 -5 -9 -10 -21 -10 -11 0 -27 -7 -35 -15 -9 -8 -26
-15 -40 -15 -13 0 -24 -4 -24 -10 0 -5 -11 -10 -25 -10 -14 0 -25 -4 -25 -9 0
-5 -16 -12 -35 -15 -19 -4 -35 -11 -35 -16 0 -6 -11 -10 -25 -10 -14 0 -25 -4
-25 -10 0 -5 -9 -10 -21 -10 -11 0 -27 -7 -35 -15 -9 -8 -26 -15 -40 -15 -13
0 -24 -4 -24 -10 0 -5 -16 -10 -35 -10 -19 0 -35 -4 -35 -9 0 -23 -289 -53
-314 -32 -6 5 -31 13 -54 17 -23 4 -45 11 -48 15 -3 5 -16 9 -30 9 -13 0 -24
4 -24 9 0 5 -11 12 -25 15 -14 4 -25 11 -25 16 0 6 -7 10 -15 10 -8 0 -15 4
-15 8 0 5 -11 15 -25 22 -14 7 -25 19 -25 27 0 7 -4 13 -10 13 -5 0 -10 5 -10
10 0 6 21 10 48 10 26 1 76 7 112 15 36 8 93 14 128 15 34 0 62 4 62 9 0 5 33
11 73 14 96 7 218 26 239 38 10 5 43 9 73 9 30 0 55 5 55 10 0 6 22 10 49 10
27 0 68 7 91 15 23 8 60 15 81 15 22 0 39 5 39 10 0 6 22 10 48 10 27 0 52 3
56 8 9 8 109 31 174 39 23 3 42 9 42 14 0 5 17 9 39 9 21 0 55 7 74 15 20 8
50 15 67 15 16 0 30 5 30 10 0 6 20 10 45 10 25 0 45 4 45 9 0 5 23 11 50 15
28 4 50 11 50 16 0 6 20 10 45 10 25 0 45 4 45 9 0 5 15 11 33 14 69 12 137
31 137 39 0 4 16 8 35 8 19 0 35 5 35 10 0 6 12 10 28 10 15 1 38 7 52 15 14
8 40 14 58 15 17 0 32 5 32 10 0 6 8 10 18 10 20 1 119 34 129 44 3 3 19 6 35
6 15 0 28 5 28 10 0 6 10 10 23 10 13 0 32 7 43 15 10 8 29 15 41 15 12 0 25
5 28 10 3 6 19 10 36 10 16 0 29 4 29 9 0 5 16 12 35 15 19 4 35 11 35 16 0 6
16 10 35 10 19 0 35 5 35 10 0 6 8 10 18 10 9 0 26 7 36 15 11 8 30 15 43 15
13 0 23 5 23 10 0 6 5 10 12 10 18 0 88 33 88 42 0 4 11 8 24 8 14 0 28 5 31
10 3 6 14 10 24 10 10 0 24 7 31 15 7 8 21 15 31 15 11 0 19 5 19 10 0 6 9 10
20 10 12 0 31 9 43 20 12 12 32 23 44 26 13 4 23 10 23 15 0 5 7 9 15 9 9 0
26 11 39 25 13 14 29 25 36 25 16 0 39 30 40 52 0 13 -13 17 -72 21 -40 2 -84
7 -98 11 -14 4 -64 10 -112 13 -49 3 -88 10 -88 14 0 5 -45 9 -100 9 -55 0
-100 4 -100 8 0 5 -102 10 -227 11 -193 1 -233 4 -263 19 -19 9 -36 20 -38 25
-2 4 -12 7 -22 7 -10 0 -21 4 -25 9 -3 5 -19 12 -35 16 -17 4 -30 11 -30 16 0
5 -11 9 -25 9 -14 0 -25 5 -25 10 0 6 -9 10 -21 10 -11 0 -27 7 -35 15 -9 8
-26 15 -40 15 -13 0 -24 5 -24 10 0 6 -11 10 -25 10 -14 0 -25 5 -25 10 0 6
-8 10 -17 10 -10 0 -31 7 -47 15 -15 8 -39 15 -52 15 -13 0 -24 5 -24 10 0 6
-16 10 -35 10 -19 0 -35 4 -35 9 0 9 -63 28 -130 38 -19 3 -37 9 -40 13 -6 9
-101 30 -162 37 -27 3 -48 9 -48 14 0 5 -22 9 -49 9 -27 0 -62 5 -78 11 -38
16 -162 30 -310 35 -68 3 -123 9 -123 15 0 5 -72 9 -175 9 -98 0 -175 -4 -175
-9 0 -5 -62 -12 -137 -15 -154 -6 -271 -19 -323 -35 -19 -6 -59 -11 -87 -11
-29 0 -53 -4 -53 -10 0 -5 -22 -10 -49 -10 -27 0 -51 -4 -53 -9 -1 -5 -22 -11
-45 -14 -39 -4 -42 -2 -48 24 -14 63 -3 203 16 215 5 3 9 14 9 25 0 10 5 19
10 19 6 0 10 7 10 15 0 8 4 15 9 15 5 0 12 8 15 18 6 18 59 52 82 52 8 0 14 5
14 10 0 6 22 10 49 10 28 0 51 5 53 11 3 9 9 9 25 0 12 -6 42 -11 67 -11 25 0
46 -4 46 -10 0 -5 11 -10 25 -10 14 0 25 -4 25 -9 0 -5 10 -13 22 -17 12 -3
36 -22 54 -40 35 -38 44 -41 44 -19 0 8 -4 15 -10 15 -5 0 -12 11 -16 25 -3
14 -10 25 -15 25 -5 0 -9 7 -9 15 0 16 -54 75 -69 75 -4 0 -20 11 -35 25 -15
14 -36 25 -47 25 -10 0 -19 5 -19 10 0 6 -16 10 -35 10 -19 0 -35 5 -35 10 0
6 -43 10 -109 10 -63 0 -112 -4 -116 -10z m985 -550 c0 -6 43 -10 109 -10 63
0 112 -4 116 -10 3 -5 36 -10 73 -10 37 0 85 -7 107 -15 22 -8 61 -14 88 -15
26 0 47 -4 47 -10 0 -5 20 -10 45 -10 25 0 45 -4 45 -10 0 -5 27 -12 60 -16
33 -4 60 -11 60 -15 0 -5 16 -9 35 -9 19 0 35 -4 35 -10 0 -5 15 -10 33 -10
17 0 41 -7 51 -15 11 -8 30 -15 43 -15 13 0 23 -4 23 -10 0 -5 16 -10 35 -10
19 0 35 -4 35 -9 0 -5 16 -12 35 -15 19 -4 35 -11 35 -16 0 -6 11 -10 25 -10
14 0 25 -4 25 -10 0 -5 6 -10 12 -10 16 0 122 -53 126 -62 2 -5 10 -8 19 -8
17 0 76 -31 81 -42 2 -5 12 -8 23 -8 10 0 19 -4 19 -10 0 -5 11 -12 25 -16 14
-3 25 -10 25 -15 0 -5 5 -9 10 -9 10 0 22 -8 55 -37 7 -7 16 -13 20 -13 10 0
125 -119 125 -130 0 -5 -13 -10 -29 -10 -17 0 -32 -4 -35 -9 -3 -5 -22 -12
-41 -15 -19 -4 -35 -11 -35 -16 0 -6 -16 -10 -35 -10 -19 0 -35 -4 -35 -10 0
-5 -10 -10 -23 -10 -13 0 -32 -7 -43 -15 -10 -8 -31 -15 -46 -15 -16 0 -28 -4
-28 -10 0 -5 -15 -10 -34 -10 -19 0 -37 -4 -41 -9 -3 -6 -26 -13 -50 -17 -25
-3 -45 -10 -45 -15 0 -5 -15 -9 -34 -9 -19 0 -38 -4 -41 -10 -3 -5 -17 -10
-29 -10 -13 0 -40 -7 -59 -15 -20 -8 -50 -15 -67 -15 -16 0 -30 -4 -30 -10 0
-5 -18 -10 -40 -10 -22 0 -40 -4 -40 -9 0 -4 -23 -11 -52 -14 -28 -4 -56 -11
-62 -17 -5 -5 -29 -10 -53 -10 -24 0 -43 -4 -43 -10 0 -5 -20 -10 -44 -10 -25
0 -47 -4 -51 -9 -3 -6 -27 -13 -53 -16 -26 -3 -55 -10 -64 -16 -10 -5 -40 -9
-68 -9 -27 0 -50 -4 -50 -9 0 -4 -27 -11 -60 -14 -34 -4 -69 -11 -80 -17 -10
-5 -42 -10 -70 -10 -32 0 -49 -4 -45 -10 4 -6 -18 -10 -60 -10 -37 0 -75 -4
-85 -10 -22 -12 -146 -30 -252 -37 -43 -2 -78 -8 -78 -12 0 -5 -39 -11 -87
-14 -49 -4 -104 -9 -123 -12 -19 -4 -90 -9 -157 -12 -68 -2 -123 -8 -123 -12
0 -5 -78 -11 -172 -15 -95 -3 -231 -10 -303 -16 -166 -12 -584 -12 -740 1 -66
5 -189 12 -273 15 -147 7 -152 8 -146 27 4 11 16 31 28 43 33 36 46 53 46 59
0 4 27 33 60 66 33 32 60 61 60 64 0 9 48 55 58 55 5 0 15 11 22 25 7 14 17
25 22 25 4 0 40 32 78 70 38 39 73 70 78 70 4 0 25 16 45 35 20 19 39 35 42
35 6 0 20 11 50 38 7 6 16 12 20 12 3 0 18 11 33 25 15 14 32 25 39 25 7 0 13
5 13 10 0 6 5 10 10 10 10 0 17 5 53 35 7 6 29 19 50 28 20 10 37 22 37 27 0
6 9 10 20 10 11 0 20 3 20 8 0 4 20 16 45 27 25 11 45 23 45 27 0 5 6 8 13 8
18 0 75 28 82 41 4 5 17 9 31 9 13 0 24 4 24 8 0 4 23 16 50 27 28 11 50 23
50 27 0 4 8 8 18 8 20 0 77 20 109 38 12 7 31 12 42 12 11 0 23 5 26 10 3 6
19 10 36 10 16 0 29 4 29 9 0 5 23 12 50 16 28 4 50 11 50 16 0 5 20 9 45 9
25 0 45 5 45 10 0 6 21 10 46 10 25 0 55 5 67 12 27 14 137 28 277 34 58 3
109 9 115 15 13 13 375 12 375 -1z"/>
<path d="M5276 8821 c-4 -5 -2 -12 3 -15 5 -4 12 -2 15 3 4 5 2 12 -3 15 -5 4
-12 2 -15 -3z"/>
<path d="M7215 7050 c-3 -5 -1 -10 4 -10 6 0 11 5 11 10 0 6 -2 10 -4 10 -3 0
-8 -4 -11 -10z"/>
<path d="M8251 4854 c0 -11 3 -14 6 -6 3 7 2 16 -1 19 -3 4 -6 -2 -5 -13z"/>
</g>
</svg>
